<svg width="48" height="22" viewBox="0 0 48 22" fill="none" xmlns="http://www.w3.org/2000/svg">
<rect y="21.8369" width="21.8367" height="47.0329" rx="5.40217" transform="rotate(-90 0 21.8369)" fill="#2D2D2D"/>
<path d="M16.7137 13.8027H12.8407L11.8329 16H10.3622L14.8387 6.38477L19.1571 16H17.663L16.7137 13.8027ZM16.1571 12.5195L14.8153 9.44336L13.4091 12.5195H16.1571ZM21.3602 10.293V16H20.0419V10.293H21.3602ZM19.8426 7.91992C19.8426 7.68945 19.9266 7.49023 20.0946 7.32227C20.2626 7.1543 20.4637 7.07031 20.6981 7.07031C20.9364 7.07031 21.1395 7.1543 21.3075 7.32227C21.4755 7.48633 21.5594 7.6875 21.5594 7.92578C21.5594 8.16406 21.4755 8.36719 21.3075 8.53516C21.1434 8.70312 20.9423 8.78711 20.704 8.78711C20.4657 8.78711 20.2626 8.70312 20.0946 8.53516C19.9266 8.36719 19.8426 8.16211 19.8426 7.91992ZM23.0301 10.293H24.3485V10.8027C24.5907 10.5488 24.8055 10.375 24.993 10.2812C25.1844 10.1836 25.411 10.1348 25.6727 10.1348C26.0204 10.1348 26.3837 10.248 26.7626 10.4746L26.1591 11.6816C25.9091 11.502 25.6649 11.4121 25.4266 11.4121C24.7079 11.4121 24.3485 11.9551 24.3485 13.041V16H23.0301V10.293Z" fill="white"/>
<path d="M36.3747 11.1774L39.0559 13.6507C39.114 13.7054 39.1832 13.7488 39.2593 13.7784C39.3355 13.808 39.4172 13.8232 39.4997 13.8232C39.5822 13.8232 39.6639 13.808 39.7401 13.7784C39.8162 13.7488 39.8853 13.7054 39.9434 13.6507L42.5934 11.1774C42.652 11.1231 42.6985 11.0586 42.7303 10.9875C42.762 10.9164 42.7783 10.8402 42.7783 10.7632C42.7783 10.6862 42.762 10.6099 42.7303 10.5389C42.6985 10.4678 42.652 10.4033 42.5934 10.349C42.4763 10.2404 42.3179 10.1794 42.1528 10.1794C41.9877 10.1794 41.8293 10.2404 41.7122 10.349L39.4997 12.414L37.2872 10.349C37.1708 10.2413 37.0137 10.1805 36.8497 10.1799C36.7674 10.1794 36.6859 10.1941 36.6098 10.2232C36.5336 10.2522 36.4643 10.295 36.4059 10.349C36.3453 10.4013 36.2963 10.4643 36.2619 10.5343C36.2274 10.6044 36.2082 10.6801 36.2053 10.7571C36.2024 10.8341 36.2159 10.9109 36.2449 10.9831C36.274 11.0552 36.3181 11.1212 36.3747 11.1774Z" fill="#6E97FF"/>
</svg>
