<svg width="48" height="22" viewBox="0 0 48 22" fill="none" xmlns="http://www.w3.org/2000/svg">
<rect y="21.8369" width="21.8367" height="47.0329" rx="5.40217" transform="rotate(-90 0 21.8369)" fill="#2D2D2D"/>
<path d="M21.7137 13.8027H17.8407L16.8329 16H15.3622L19.8387 6.38477L24.1571 16H22.663L21.7137 13.8027ZM21.1571 12.5195L19.8153 9.44336L18.4091 12.5195H21.1571ZM26.3602 10.293V16H25.0419V10.293H26.3602ZM24.8426 7.91992C24.8426 7.68945 24.9266 7.49023 25.0946 7.32227C25.2626 7.1543 25.4637 7.07031 25.6981 7.07031C25.9364 7.07031 26.1395 7.1543 26.3075 7.32227C26.4755 7.48633 26.5594 7.6875 26.5594 7.92578C26.5594 8.16406 26.4755 8.36719 26.3075 8.53516C26.1434 8.70312 25.9423 8.78711 25.704 8.78711C25.4657 8.78711 25.2626 8.70312 25.0946 8.53516C24.9266 8.36719 24.8426 8.16211 24.8426 7.91992ZM28.0301 10.293H29.3485V10.8027C29.5907 10.5488 29.8055 10.375 29.993 10.2812C30.1844 10.1836 30.411 10.1348 30.6727 10.1348C31.0204 10.1348 31.3837 10.248 31.7626 10.4746L31.1591 11.6816C30.9091 11.502 30.6649 11.4121 30.4266 11.4121C29.7079 11.4121 29.3485 11.9551 29.3485 13.041V16H28.0301V10.293Z" fill="white"/>
</svg>
