<svg width="45" height="11" viewBox="0 0 45 11" fill="none" xmlns="http://www.w3.org/2000/svg">
<path d="M6.39844 7.80273H2.52539L1.51758 10H0.046875L4.52344 0.384766L8.8418 10H7.34766L6.39844 7.80273ZM5.8418 6.51953L4.5 3.44336L3.09375 6.51953H5.8418ZM9.72656 4.29297H11.0508V4.82031C11.5117 4.36328 12.0312 4.13477 12.6094 4.13477C13.2734 4.13477 13.791 4.34375 14.1621 4.76172C14.4824 5.11719 14.6426 5.69727 14.6426 6.50195V10H13.3184V6.8125C13.3184 6.25 13.2402 5.86133 13.084 5.64648C12.9316 5.42773 12.6543 5.31836 12.252 5.31836C11.8145 5.31836 11.5039 5.46289 11.3203 5.75195C11.1406 6.03711 11.0508 6.53516 11.0508 7.24609V10H9.72656V4.29297ZM17.6309 4.29297V10H16.3125V4.29297H17.6309ZM16.1133 1.91992C16.1133 1.68945 16.1973 1.49023 16.3652 1.32227C16.5332 1.1543 16.7344 1.07031 16.9688 1.07031C17.207 1.07031 17.4102 1.1543 17.5781 1.32227C17.7461 1.48633 17.8301 1.6875 17.8301 1.92578C17.8301 2.16406 17.7461 2.36719 17.5781 2.53516C17.4141 2.70312 17.2129 2.78711 16.9746 2.78711C16.7363 2.78711 16.5332 2.70312 16.3652 2.53516C16.1973 2.36719 16.1133 2.16211 16.1133 1.91992ZM19.3008 4.29297H20.6191V4.82031C20.873 4.55469 21.0898 4.375 21.2695 4.28125C21.4609 4.18359 21.7012 4.13477 21.9902 4.13477C22.6348 4.13477 23.1445 4.41602 23.5195 4.97852C23.9336 4.41602 24.4941 4.13477 25.2012 4.13477C26.4863 4.13477 27.1289 4.91406 27.1289 6.47266V10H25.8047V6.83008C25.8047 6.2832 25.7383 5.89648 25.6055 5.66992C25.4688 5.43945 25.2441 5.32422 24.9316 5.32422C24.5684 5.32422 24.3027 5.46094 24.1348 5.73438C23.9707 6.00781 23.8887 6.44727 23.8887 7.05273V10H22.5645V6.84766C22.5645 5.83203 22.2715 5.32422 21.6855 5.32422C21.3145 5.32422 21.043 5.46289 20.8711 5.74023C20.7031 6.01758 20.6191 6.45508 20.6191 7.05273V10H19.3008V4.29297ZM33 4.29297H34.3242V10H33V9.40234C32.457 9.91016 31.873 10.1641 31.248 10.1641C30.459 10.1641 29.8066 9.87891 29.291 9.30859C28.7793 8.72656 28.5234 8 28.5234 7.12891C28.5234 6.27344 28.7793 5.56055 29.291 4.99023C29.8027 4.41992 30.4434 4.13477 31.2129 4.13477C31.877 4.13477 32.4727 4.4082 33 4.95508V4.29297ZM29.8711 7.12891C29.8711 7.67578 30.0176 8.12109 30.3105 8.46484C30.6113 8.8125 30.9902 8.98633 31.4473 8.98633C31.9355 8.98633 32.3301 8.81836 32.6309 8.48242C32.9316 8.13477 33.082 7.69336 33.082 7.1582C33.082 6.62305 32.9316 6.18164 32.6309 5.83398C32.3301 5.49414 31.9395 5.32422 31.459 5.32422C31.0059 5.32422 30.627 5.49609 30.3223 5.83984C30.0215 6.1875 29.8711 6.61719 29.8711 7.12891ZM37.3477 5.52344V10H36.0293V5.52344H35.4668V4.29297H36.0293V2.20117H37.3477V4.29297H38.373V5.52344H37.3477ZM44.5723 7.45703H40.4824C40.5176 7.92578 40.6699 8.29883 40.9395 8.57617C41.209 8.84961 41.5547 8.98633 41.9766 8.98633C42.3047 8.98633 42.5762 8.9082 42.791 8.75195C43.002 8.5957 43.2422 8.30664 43.5117 7.88477L44.625 8.50586C44.4531 8.79883 44.2715 9.05078 44.0801 9.26172C43.8887 9.46875 43.6836 9.64062 43.4648 9.77734C43.2461 9.91016 43.0098 10.0078 42.7559 10.0703C42.502 10.1328 42.2266 10.1641 41.9297 10.1641C41.0781 10.1641 40.3945 9.89062 39.8789 9.34375C39.3633 8.79297 39.1055 8.0625 39.1055 7.15234C39.1055 6.25 39.3555 5.51953 39.8555 4.96094C40.3594 4.41016 41.0273 4.13477 41.8594 4.13477C42.6992 4.13477 43.3633 4.40234 43.8516 4.9375C44.3359 5.46875 44.5781 6.20508 44.5781 7.14648L44.5723 7.45703ZM43.2188 6.37891C43.0352 5.67578 42.5918 5.32422 41.8887 5.32422C41.7285 5.32422 41.5781 5.34961 41.4375 5.40039C41.2969 5.44727 41.168 5.51758 41.0508 5.61133C40.9375 5.70117 40.8398 5.81055 40.7578 5.93945C40.6758 6.06836 40.6133 6.21484 40.5703 6.37891H43.2188Z" fill="#C4C4C4"/>
</svg>
