<svg width="100" height="96" viewBox="0 0 100 96" fill="none" xmlns="http://www.w3.org/2000/svg">
<path d="M0 8.54059C0 3.82376 3.82375 0 8.54058 0H91.3335C96.0503 0 99.874 3.82375 99.874 8.54058V87.2981C99.874 92.015 96.0503 95.8387 91.3335 95.8387H8.54058C3.82375 95.8387 0 92.015 0 87.2981V8.54059Z" fill="#393939"/>
<path d="M22.2528 84.4269H18.3455L17.3288 86.6436H15.8452L20.3612 76.9434L24.7177 86.6436H23.2104L22.2528 84.4269ZM21.6912 83.1324L20.3376 80.029L18.9189 83.1324H21.6912Z" fill="#606060"/>
<path d="M26.9285 80.8861V84.1904C26.9285 85.1441 27.3048 85.6209 28.0575 85.6209C28.8102 85.6209 29.1865 85.1441 29.1865 84.1904V80.8861H30.5165V84.22C30.5165 84.6811 30.4594 85.0791 30.3451 85.414C30.2348 85.7135 30.0436 85.9835 29.7717 86.2239C29.3225 86.614 28.7511 86.8091 28.0575 86.8091C27.3679 86.8091 26.7984 86.614 26.3492 86.2239C26.0733 85.9835 25.8783 85.7135 25.764 85.414C25.6536 85.1461 25.5985 84.7481 25.5985 84.22V80.8861H26.9285Z" fill="#606060"/>
<path d="M36.4394 76.6597H37.7754V86.6436H36.4394V86.0406C35.9153 86.5529 35.3222 86.8091 34.6602 86.8091C33.8721 86.8091 33.2179 86.5214 32.6977 85.946C32.1815 85.3589 31.9234 84.6259 31.9234 83.7471C31.9234 82.888 32.1815 82.1708 32.6977 81.5955C33.21 81.0162 33.8543 80.7265 34.6306 80.7265C35.3045 80.7265 35.9074 81.0024 36.4394 81.5541V76.6597ZM33.2829 83.7471C33.2829 84.2988 33.4307 84.7481 33.7262 85.0948C34.0297 85.4456 34.4119 85.6209 34.873 85.6209C35.3656 85.6209 35.7636 85.4515 36.067 85.1126C36.3705 84.7619 36.5222 84.3166 36.5222 83.7767C36.5222 83.2368 36.3705 82.7915 36.067 82.4408C35.7636 82.0979 35.3695 81.9265 34.8848 81.9265C34.4277 81.9265 34.0454 82.0999 33.7381 82.4467C33.4346 82.7974 33.2829 83.2309 33.2829 83.7471Z" fill="#606060"/>
<path d="M40.7841 80.8861V86.6436H39.4541V80.8861H40.7841ZM39.2531 78.4921C39.2531 78.2596 39.3379 78.0587 39.5073 77.8892C39.6768 77.7198 39.8797 77.635 40.1161 77.635C40.3565 77.635 40.5615 77.7198 40.7309 77.8892C40.9004 78.0547 40.9851 78.2577 40.9851 78.4981C40.9851 78.7384 40.9004 78.9434 40.7309 79.1128C40.5654 79.2823 40.3624 79.367 40.1221 79.367C39.8817 79.367 39.6768 79.2823 39.5073 79.1128C39.3379 78.9434 39.2531 78.7365 39.2531 78.4921Z" fill="#606060"/>
<path d="M42.1969 83.7235C42.1969 82.892 42.4944 82.1846 43.0894 81.6014C43.6845 81.0182 44.4096 80.7265 45.2647 80.7265C46.1238 80.7265 46.8528 81.0201 47.4518 81.6073C48.0429 82.1945 48.3385 82.9156 48.3385 83.7708C48.3385 84.6338 48.041 85.3569 47.4459 85.9401C46.8469 86.5194 46.112 86.8091 45.2411 86.8091C44.3781 86.8091 43.6549 86.5135 43.0717 85.9224C42.4885 85.3392 42.1969 84.6062 42.1969 83.7235ZM43.5564 83.7471C43.5564 84.3225 43.7101 84.7776 44.0175 85.1126C44.3327 85.4515 44.7485 85.6209 45.2647 85.6209C45.7849 85.6209 46.2006 85.4535 46.512 85.1185C46.8233 84.7835 46.9789 84.3363 46.9789 83.7767C46.9789 83.2171 46.8233 82.7698 46.512 82.4348C46.1967 82.0959 45.781 81.9265 45.2647 81.9265C44.7564 81.9265 44.3446 82.0959 44.0293 82.4348C43.714 82.7738 43.5564 83.2112 43.5564 83.7471Z" fill="#606060"/>
<path d="M53.422 86.6436L55.3432 76.8311L58.476 83.9244L61.7212 76.8311L63.4473 86.6436H62.0345L61.1538 81.1344L58.4524 87.0632L55.8279 81.1285L54.8466 86.6436H53.422Z" fill="#606060"/>
<path d="M66.4619 80.8861V86.6436H65.132V80.8861H66.4619ZM64.931 78.4921C64.931 78.2596 65.0157 78.0587 65.1852 77.8892C65.3546 77.7198 65.5575 77.635 65.794 77.635C66.0344 77.635 66.2393 77.7198 66.4087 77.8892C66.5782 78.0547 66.6629 78.2577 66.6629 78.4981C66.6629 78.7384 66.5782 78.9434 66.4087 79.1128C66.2432 79.2823 66.0403 79.367 65.7999 79.367C65.5595 79.367 65.3546 79.2823 65.1852 79.1128C65.0157 78.9434 64.931 78.7365 64.931 78.4921Z" fill="#606060"/>
<path d="M69.9318 83.5284L67.8629 80.8861H69.4471L70.7298 82.5649L72.0361 80.8861H73.6676L71.5396 83.5284L74.0045 86.6436H72.4203L70.7298 84.4919L68.9978 86.6436H67.3723L69.9318 83.5284Z" fill="#606060"/>
<path d="M79.9511 84.0781H75.8251C75.8606 84.551 76.0143 84.9274 76.2862 85.2072C76.5581 85.483 76.9069 85.6209 77.3325 85.6209C77.6635 85.6209 77.9374 85.5421 78.1541 85.3845C78.3669 85.2269 78.6093 84.9352 78.8812 84.5096L80.0043 85.1362C79.8309 85.4318 79.6476 85.686 79.4546 85.8988C79.2615 86.1076 79.0546 86.281 78.8339 86.4189C78.6132 86.5529 78.3748 86.6514 78.1186 86.7145C77.8625 86.7775 77.5847 86.8091 77.2852 86.8091C76.4261 86.8091 75.7365 86.5332 75.2163 85.9815C74.6961 85.4259 74.436 84.6889 74.436 83.7708C74.436 82.8605 74.6882 82.1235 75.1926 81.56C75.701 81.0044 76.3749 80.7265 77.2142 80.7265C78.0615 80.7265 78.7314 80.9965 79.224 81.5364C79.7127 82.0723 79.957 82.8151 79.957 83.7648L79.9511 84.0781ZM78.5856 82.9905C78.4004 82.2812 77.9531 81.9265 77.2438 81.9265C77.0822 81.9265 76.9305 81.9521 76.7887 82.0033C76.6468 82.0506 76.5167 82.1216 76.3985 82.2161C76.2842 82.3068 76.1857 82.4171 76.103 82.5472C76.0202 82.6772 75.9572 82.825 75.9138 82.9905H78.5856Z" fill="#606060"/>
<path d="M81.4111 80.8861H82.7411V81.4004C82.9855 81.1443 83.2022 80.9689 83.3914 80.8743C83.5844 80.7758 83.813 80.7265 84.077 80.7265C84.4278 80.7265 84.7943 80.8408 85.1765 81.0694L84.5677 82.2871C84.3155 82.1058 84.0692 82.0152 83.8288 82.0152C83.1037 82.0152 82.7411 82.5629 82.7411 83.6584V86.6436H81.4111V80.8861Z" fill="#606060"/>
<path d="M38.496 20.7769H35.7217V12.4541C35.7217 11.7183 35.4295 11.0126 34.9092 10.4924C34.3889 9.97209 33.6833 9.6798 32.9475 9.6798C32.2117 9.6798 31.506 9.97209 30.9858 10.4924C30.4655 11.0126 30.1732 11.7183 30.1732 12.4541V20.7769H27.3989C26.6631 20.7769 25.9575 21.0692 25.4372 21.5895C24.9169 22.1098 24.6246 22.8154 24.6246 23.5512C24.6246 24.287 24.9169 24.9926 25.4372 25.5129C25.9575 26.0332 26.6631 26.3255 27.3989 26.3255H38.496C39.2318 26.3255 39.9375 26.0332 40.4577 25.5129C40.978 24.9926 41.2703 24.287 41.2703 23.5512C41.2703 22.8154 40.978 22.1098 40.4577 21.5895C39.9375 21.0692 39.2318 20.7769 38.496 20.7769ZM32.9475 31.874C32.2117 31.874 31.506 32.1663 30.9858 32.6866C30.4655 33.2069 30.1732 33.9125 30.1732 34.6483V62.3911C30.1732 63.1269 30.4655 63.8325 30.9858 64.3528C31.506 64.8731 32.2117 65.1654 32.9475 65.1654C33.6833 65.1654 34.3889 64.8731 34.9092 64.3528C35.4295 63.8325 35.7217 63.1269 35.7217 62.3911V34.6483C35.7217 33.9125 35.4295 33.2069 34.9092 32.6866C34.3889 32.1663 33.6833 31.874 32.9475 31.874ZM52.3674 54.0683C51.6316 54.0683 50.926 54.3606 50.4057 54.8808C49.8854 55.4011 49.5931 56.1068 49.5931 56.8425V62.3911C49.5931 63.1269 49.8854 63.8325 50.4057 64.3528C50.926 64.8731 51.6316 65.1654 52.3674 65.1654C53.1032 65.1654 53.8089 64.8731 54.3291 64.3528C54.8494 63.8325 55.1417 63.1269 55.1417 62.3911V56.8425C55.1417 56.1068 54.8494 55.4011 54.3291 54.8808C53.8089 54.3606 53.1032 54.0683 52.3674 54.0683ZM77.3359 31.874H74.5617V12.4541C74.5617 11.7183 74.2694 11.0126 73.7491 10.4924C73.2288 9.97209 72.5232 9.6798 71.7874 9.6798C71.0516 9.6798 70.3459 9.97209 69.8257 10.4924C69.3054 11.0126 69.0131 11.7183 69.0131 12.4541V31.874H66.2388C65.503 31.874 64.7974 32.1663 64.2771 32.6866C63.7568 33.2069 63.4645 33.9125 63.4645 34.6483C63.4645 35.3841 63.7568 36.0897 64.2771 36.61C64.7974 37.1303 65.503 37.4226 66.2388 37.4226H77.3359C78.0717 37.4226 78.7774 37.1303 79.2976 36.61C79.8179 36.0897 80.1102 35.3841 80.1102 34.6483C80.1102 33.9125 79.8179 33.2069 79.2976 32.6866C78.7774 32.1663 78.0717 31.874 77.3359 31.874ZM71.7874 42.9712C71.0516 42.9712 70.3459 43.2634 69.8257 43.7837C69.3054 44.304 69.0131 45.0096 69.0131 45.7454V62.3911C69.0131 63.1269 69.3054 63.8325 69.8257 64.3528C70.3459 64.8731 71.0516 65.1654 71.7874 65.1654C72.5232 65.1654 73.2288 64.8731 73.7491 64.3528C74.2694 63.8325 74.5617 63.1269 74.5617 62.3911V45.7454C74.5617 45.0096 74.2694 44.304 73.7491 43.7837C73.2288 43.2634 72.5232 42.9712 71.7874 42.9712ZM57.916 42.9712H55.1417V12.4541C55.1417 11.7183 54.8494 11.0126 54.3291 10.4924C53.8089 9.97209 53.1032 9.6798 52.3674 9.6798C51.6316 9.6798 50.926 9.97209 50.4057 10.4924C49.8854 11.0126 49.5931 11.7183 49.5931 12.4541V42.9712H46.8189C46.0831 42.9712 45.3774 43.2634 44.8572 43.7837C44.3369 44.304 44.0446 45.0096 44.0446 45.7454C44.0446 46.4812 44.3369 47.1869 44.8572 47.7071C45.3774 48.2274 46.0831 48.5197 46.8189 48.5197H57.916C58.6518 48.5197 59.3574 48.2274 59.8777 47.7071C60.398 47.1869 60.6903 46.4812 60.6903 45.7454C60.6903 45.0096 60.398 44.304 59.8777 43.7837C59.3574 43.2634 58.6518 42.9712 57.916 42.9712Z" fill="#858585"/>
<path d="M99.874 22.5125L0 64.8643V8.54059C0 3.82376 3.82375 0 8.54058 0H91.3335C96.0503 0 99.874 3.82375 99.874 8.54058V22.5125Z" fill="black" fill-opacity="0.5"/>
<path d="M12.6412 39.0848L13.2805 40.5858C12.2872 40.285 11.399 40.3015 10.6158 40.635C9.75297 41.0026 9.1581 41.6222 8.83123 42.4939C8.49919 43.3635 8.52313 44.2443 8.90304 45.1362C9.27832 46.0172 9.89221 46.6337 10.7447 46.9859C11.5972 47.3381 12.4549 47.3304 13.3178 46.9629C13.7637 46.7729 14.1117 46.539 14.3617 46.2612C14.5048 46.1145 14.6426 45.9402 14.775 45.7382C14.911 45.5346 15.0453 45.3018 15.1778 45.0397L15.8287 46.5679C15.2782 47.2864 14.6041 47.8156 13.8064 48.1554C12.6064 48.6665 11.4038 48.6841 10.1987 48.208C8.99412 47.7231 8.13778 46.8842 7.62968 45.6914C7.17409 44.6219 7.12141 43.5178 7.47164 42.3792C7.9047 40.9825 8.8119 39.99 10.1932 39.4016C10.9473 39.0803 11.7633 38.9748 12.6412 39.0848Z" fill="white"/>
<path d="M16.0016 43.8664C15.6757 43.1014 15.6722 42.3341 15.9911 41.5643C16.31 40.7945 16.8628 40.2421 17.6495 39.9069C18.4399 39.5703 19.2257 39.5546 20.0069 39.8601C20.7808 40.1686 21.3353 40.7163 21.6705 41.503C22.0087 42.297 22.0183 43.0789 21.6994 43.8487C21.3754 44.6164 20.8127 45.1709 20.0115 45.5122C19.2175 45.8504 18.4364 45.8619 17.6682 45.5466C16.903 45.2386 16.3475 44.6785 16.0016 43.8664ZM17.2616 43.3554C17.4871 43.8847 17.8069 44.2432 18.2209 44.4309C18.6438 44.6192 19.0927 44.6121 19.5676 44.4098C20.0462 44.206 20.3631 43.8889 20.5182 43.4588C20.6733 43.0286 20.6413 42.5561 20.422 42.0413C20.2027 41.5264 19.8842 41.176 19.4665 40.9898C19.0436 40.8016 18.5947 40.8086 18.1198 41.0109C17.6521 41.2101 17.3396 41.5274 17.1824 41.9627C17.0252 42.3981 17.0516 42.8623 17.2616 43.3554Z" fill="white"/>
<path d="M21.8397 38.2955L23.0633 37.7743L23.2718 38.2637C23.4025 37.9168 23.5326 37.6643 23.6623 37.5063C23.8014 37.3399 24.005 37.1996 24.2733 37.0854C24.8715 36.8305 25.4559 36.89 26.0263 37.2639C26.1882 36.5781 26.5973 36.0954 27.2535 35.8159C28.4463 35.3078 29.3508 35.777 29.967 37.2236L31.3616 40.4975L30.1325 41.021L28.8793 38.0789C28.6631 37.5713 28.4485 37.2387 28.2357 37.0809C28.0177 36.921 27.7636 36.9029 27.4736 37.0264C27.1364 37.1701 26.944 37.402 26.8962 37.7222C26.852 38.0408 26.9496 38.4811 27.189 39.0431L28.3542 41.7785L27.1252 42.302L25.8789 39.3763C25.4773 38.4336 25.0046 38.0781 24.4608 38.3098C24.1164 38.4565 23.9192 38.6926 23.8694 39.0179C23.8231 39.3417 23.9181 39.781 24.1544 40.3357L25.3197 43.0711L24.096 43.5924L21.8397 38.2955Z" fill="white"/>
<path d="M31.8733 34.0215L34.1296 39.3183L32.906 39.8396L30.6497 34.5427L31.8733 34.0215ZM29.5266 32.4189C29.4355 32.205 29.4347 31.9869 29.5242 31.7646C29.6137 31.5423 29.7672 31.3848 29.9847 31.2922C30.2058 31.198 30.4276 31.1956 30.6499 31.2851C30.8706 31.371 31.0281 31.5245 31.1223 31.7456C31.2165 31.9668 31.2189 32.1885 31.1294 32.4108C31.0435 32.6316 30.89 32.7891 30.6689 32.8833C30.4477 32.9775 30.226 32.9798 30.0037 32.8904C29.7814 32.8009 29.6224 32.6437 29.5266 32.4189Z" fill="white"/>
<path d="M33.4232 33.3612L34.6523 32.8377L34.8608 33.3271C35.1079 32.7207 35.4997 32.3032 36.0363 32.0747C36.6526 31.8121 37.2156 31.8015 37.7253 32.0427C38.1631 32.2459 38.5411 32.721 38.8593 33.4679L40.2423 36.7145L39.0132 37.2381L37.753 34.2796C37.5306 33.7576 37.3044 33.4277 37.0745 33.2901C36.8466 33.1473 36.5459 33.1554 36.1725 33.3145C35.7665 33.4875 35.5354 33.7444 35.4793 34.0853C35.4252 34.421 35.5387 34.9187 35.8198 35.5786L36.9086 38.1346L35.6796 38.6581L33.4232 33.3612Z" fill="white"/>
<path d="M46.8617 33.747C46.9683 33.9972 47.0527 34.2204 47.1148 34.4166C47.1822 34.615 47.2323 34.7928 47.265 34.9502C47.3479 35.3861 47.3234 35.8013 47.1917 36.1958C46.9478 36.9507 46.4072 37.5066 45.5697 37.8633C44.8627 38.1645 44.1997 38.222 43.5808 38.0359C42.9426 37.8451 42.4398 37.4189 42.0724 36.7574L43.3014 36.2338C43.4597 36.4748 43.6234 36.6428 43.7924 36.7378C44.1867 36.9597 44.6268 36.9671 45.1126 36.7602C46.0081 36.3787 46.2219 35.6387 45.7539 34.5402L45.4389 33.8006C45.1647 34.5042 44.7103 34.9912 44.0758 35.2614C43.3544 35.5688 42.6522 35.5594 41.9694 35.2335C41.2798 34.9019 40.766 34.339 40.4277 33.5451C40.0988 32.7728 40.035 32.0247 40.2363 31.3007C40.4564 30.5302 40.9471 29.9828 41.7084 29.6585C42.3755 29.3743 43.036 29.3864 43.6899 29.6947L43.4351 29.0965L44.6587 28.5752L46.8617 33.747ZM44.6168 31.7349C44.3975 31.2201 44.0845 30.8673 43.6777 30.6765C43.2641 30.48 42.8398 30.4744 42.4048 30.6597C41.9407 30.8574 41.6479 31.1856 41.5263 31.6443C41.4147 32.056 41.4631 32.5065 41.6716 32.9959C41.877 33.4781 42.1668 33.8216 42.541 34.0263C42.9492 34.2507 43.3872 34.2633 43.8549 34.0641C44.3226 33.8649 44.6198 33.5369 44.7466 33.0803C44.8655 32.6656 44.8222 32.2171 44.6168 31.7349Z" fill="white"/>
<path d="M53.834 22.4823L53.0656 23.5292C52.7314 23.2775 52.4556 23.138 52.2383 23.1106C52.0076 23.0718 51.7491 23.1134 51.4627 23.2354C51.111 23.3852 50.8616 23.6092 50.7145 23.9075C50.5659 24.2021 50.5549 24.498 50.6815 24.7953C50.856 25.205 51.3011 25.4052 52.0168 25.3959L53.0002 25.3818C53.7992 25.367 54.4413 25.4918 54.9266 25.7563C55.4104 26.0171 55.775 26.4357 56.0206 27.0122C56.3495 27.7844 56.3639 28.5321 56.0638 29.2554C55.7615 29.9838 55.2261 30.5117 54.4575 30.8391C53.7288 31.1495 53.035 31.1902 52.3763 30.9611C51.7248 30.7288 51.1743 30.2459 50.7247 29.5122L51.8877 28.6827C52.1557 29.1511 52.4024 29.4486 52.6277 29.5754C53.0432 29.8267 53.5011 29.8459 54.0014 29.6327C54.3966 29.4644 54.6683 29.1923 54.8166 28.8164C54.9649 28.4406 54.9526 28.0496 54.7796 27.6436C54.7101 27.4804 54.6233 27.3418 54.519 27.2277C54.4168 27.1085 54.2928 27.0135 54.147 26.9429C54.0034 26.867 53.8345 26.8125 53.6406 26.7795C53.4451 26.7429 53.2229 26.724 52.974 26.7229L52.02 26.7309C50.6638 26.7347 49.7865 26.2689 49.388 25.3335C49.1193 24.7026 49.1357 24.0724 49.4372 23.4429C49.7371 22.8096 50.2461 22.3401 50.9639 22.0344C51.9319 21.622 52.8886 21.7713 53.834 22.4823Z" fill="white"/>
<path d="M56.9952 26.4042C56.6694 25.6393 56.6659 24.8719 56.9848 24.1021C57.3036 23.3323 57.8564 22.7799 58.6432 22.4447C59.4335 22.1081 60.2193 22.0925 61.0005 22.3979C61.7744 22.7065 62.329 23.2541 62.6641 24.0408C63.0023 24.8348 63.012 25.6167 62.6931 26.3865C62.369 27.1542 61.8064 27.7087 61.0052 28.05C60.2112 28.3882 59.4301 28.3997 58.6618 28.0844C57.8967 27.7764 57.3412 27.2164 56.9952 26.4042ZM58.2553 25.8932C58.4808 26.4225 58.8005 26.781 59.2146 26.9687C59.6374 27.157 60.0863 27.1499 60.5613 26.9476C61.0399 26.7438 61.3567 26.4268 61.5119 25.9966C61.667 25.5664 61.6349 25.0939 61.4156 24.5791C61.1963 24.0643 60.8778 23.7138 60.4601 23.5276C60.0373 23.3394 59.5884 23.3464 59.1134 23.5487C58.6458 23.7479 58.3333 24.0652 58.1761 24.5006C58.0188 24.9359 58.0452 25.4001 58.2553 25.8932Z" fill="white"/>
<path d="M63.6952 23.5502C63.3693 22.7853 63.3658 22.0179 63.6847 21.2481C64.0036 20.4783 64.5564 19.9259 65.3431 19.5908C66.1335 19.2541 66.9193 19.2385 67.7004 19.5439C68.4744 19.8525 69.0289 20.4001 69.3641 21.1869C69.7023 21.9808 69.7119 22.7627 69.393 23.5325C69.069 24.3002 68.5063 24.8547 67.7051 25.196C66.9111 25.5342 66.13 25.5457 65.3618 25.2304C64.5966 24.9224 64.0411 24.3624 63.6952 23.5502ZM64.9552 23.0392C65.1807 23.5685 65.5005 23.927 65.9145 24.1147C66.3374 24.303 66.7863 24.296 67.2612 24.0936C67.7398 23.8898 68.0567 23.5728 68.2118 23.1426C68.3669 22.7124 68.3349 22.2399 68.1156 21.7251C67.8963 21.2103 67.5778 20.8598 67.1601 20.6736C66.7372 20.4854 66.2883 20.4924 65.8134 20.6947C65.3457 20.8939 65.0332 21.2112 64.876 21.6466C64.7188 22.0819 64.7452 22.5461 64.9552 23.0392Z" fill="white"/>
<path d="M69.5333 17.9793L70.7624 17.4558L70.9709 17.9452C71.218 17.3388 71.6098 16.9213 72.1464 16.6927C72.7627 16.4302 73.3257 16.4195 73.8354 16.6608C74.2732 16.864 74.6512 17.3391 74.9694 18.086L76.3523 21.3326L75.1233 21.8561L73.8631 18.8977C73.6407 18.3757 73.4145 18.0458 73.1846 17.9082C72.9567 17.7654 72.656 17.7735 72.2826 17.9326C71.8765 18.1056 71.6455 18.3625 71.5893 18.7033C71.5353 19.0391 71.6488 19.5368 71.9299 20.1967L73.0187 22.7527L71.7896 23.2762L69.5333 17.9793Z" fill="white"/>
<path d="M77.9637 19.9266C77.8772 19.7236 77.8766 19.5161 77.9619 19.3041C78.0472 19.0922 78.1932 18.9422 78.3999 18.8541C78.6065 18.7661 78.8158 18.7648 79.0278 18.8501C79.2398 18.9354 79.3898 19.0814 79.4778 19.2881C79.5674 19.4983 79.5695 19.7095 79.4842 19.9214C79.4009 20.1282 79.2542 20.2764 79.0439 20.366C78.83 20.4571 78.6196 20.461 78.4128 20.3778C78.206 20.2945 78.0563 20.1442 77.9637 19.9266ZM77.5676 18.6047L74.7877 12.0788L76.0168 11.5553L78.7967 18.0812L77.5676 18.6047Z" fill="white"/>
</svg>
