<svg width="99" height="95" viewBox="0 0 99 95" fill="none" xmlns="http://www.w3.org/2000/svg">
<rect width="98.9999" height="94.9999" rx="8.46582" fill="#393939"/>
<path d="M22.059 84.8027H18.1859L17.1781 87H15.7074L20.184 77.3848L24.5023 87H23.0082L22.059 84.8027ZM21.5023 83.5195L20.1606 80.4434L18.7543 83.5195H21.5023ZM26.6937 81.293V84.5684C26.6937 85.5137 27.0668 85.9863 27.8129 85.9863C28.559 85.9863 28.932 85.5137 28.932 84.5684V81.293H30.2504V84.5977C30.2504 85.0547 30.1937 85.4492 30.0805 85.7813C29.9711 86.0781 29.7816 86.3457 29.5121 86.584C29.0668 86.9707 28.5004 87.1641 27.8129 87.1641C27.1293 87.1641 26.5648 86.9707 26.1195 86.584C25.8461 86.3457 25.6527 86.0781 25.5395 85.7813C25.4301 85.5156 25.3754 85.1211 25.3754 84.5977V81.293H26.6937ZM36.1215 77.1035H37.4457V87H36.1215V86.4023C35.6019 86.9102 35.014 87.1641 34.3578 87.1641C33.5765 87.1641 32.9281 86.8789 32.4125 86.3086C31.9008 85.7266 31.6449 85 31.6449 84.1289C31.6449 83.2773 31.9008 82.5664 32.4125 81.9961C32.9203 81.4219 33.559 81.1348 34.3285 81.1348C34.9965 81.1348 35.5941 81.4082 36.1215 81.9551V77.1035ZM32.9926 84.1289C32.9926 84.6758 33.1391 85.1211 33.432 85.4648C33.7328 85.8125 34.1117 85.9863 34.5687 85.9863C35.057 85.9863 35.4515 85.8184 35.7523 85.4824C36.0531 85.1348 36.2035 84.6934 36.2035 84.1582C36.2035 83.6231 36.0531 83.1816 35.7523 82.834C35.4515 82.4941 35.0609 82.3242 34.5805 82.3242C34.1273 82.3242 33.7484 82.4961 33.4437 82.8399C33.143 83.1875 32.9926 83.6172 32.9926 84.1289ZM40.4281 81.293V87H39.1097V81.293H40.4281ZM38.9105 78.9199C38.9105 78.6895 38.9945 78.4902 39.1625 78.3223C39.3304 78.1543 39.5316 78.0703 39.766 78.0703C40.0043 78.0703 40.2074 78.1543 40.3754 78.3223C40.5433 78.4863 40.6273 78.6875 40.6273 78.9258C40.6273 79.1641 40.5433 79.3672 40.3754 79.5352C40.2113 79.7031 40.0101 79.7871 39.7719 79.7871C39.5336 79.7871 39.3304 79.7031 39.1625 79.5352C38.9945 79.3672 38.9105 79.1621 38.9105 78.9199ZM41.8285 84.1055C41.8285 83.2813 42.1234 82.5801 42.7133 82.002C43.3031 81.4238 44.0218 81.1348 44.8695 81.1348C45.7211 81.1348 46.4437 81.4258 47.0375 82.0078C47.6234 82.5899 47.9164 83.3047 47.9164 84.1523C47.9164 85.0078 47.6215 85.7246 47.0316 86.3027C46.4379 86.877 45.7093 87.1641 44.8461 87.1641C43.9906 87.1641 43.2738 86.8711 42.6957 86.2852C42.1176 85.707 41.8285 84.9805 41.8285 84.1055ZM43.1761 84.1289C43.1761 84.6992 43.3285 85.1504 43.6332 85.4824C43.9457 85.8184 44.3578 85.9863 44.8695 85.9863C45.3851 85.9863 45.7972 85.8203 46.1058 85.4883C46.4144 85.1563 46.5687 84.7129 46.5687 84.1582C46.5687 83.6035 46.4144 83.1602 46.1058 82.8281C45.7933 82.4922 45.3812 82.3242 44.8695 82.3242C44.3656 82.3242 43.9574 82.4922 43.6449 82.8281C43.3324 83.1641 43.1761 83.5977 43.1761 84.1289ZM52.9554 87L54.8597 77.2735L57.9652 84.3047L61.182 77.2735L62.8929 87H61.4925L60.6195 81.5391L57.9417 87.416L55.3402 81.5332L54.3675 87H52.9554ZM65.8812 81.293V87H64.5628V81.293H65.8812ZM64.3636 78.9199C64.3636 78.6895 64.4476 78.4902 64.6156 78.3223C64.7835 78.1543 64.9847 78.0703 65.2191 78.0703C65.4574 78.0703 65.6605 78.1543 65.8285 78.3223C65.9964 78.4863 66.0804 78.6875 66.0804 78.9258C66.0804 79.1641 65.9964 79.3672 65.8285 79.5352C65.6644 79.7031 65.4632 79.7871 65.2249 79.7871C64.9867 79.7871 64.7835 79.7031 64.6156 79.5352C64.4476 79.3672 64.3636 79.1621 64.3636 78.9199ZM69.3206 83.9121L67.2699 81.293H68.8402L70.1117 82.957L71.4066 81.293H73.0238L70.9144 83.9121L73.3577 87H71.7874L70.1117 84.8672L68.3949 87H66.7835L69.3206 83.9121ZM79.2523 84.457H75.1624C75.1976 84.9258 75.3499 85.2988 75.6195 85.5762C75.889 85.8496 76.2347 85.9863 76.6566 85.9863C76.9847 85.9863 77.2562 85.9082 77.471 85.752C77.682 85.5957 77.9222 85.3066 78.1917 84.8848L79.305 85.5059C79.1331 85.7988 78.9515 86.0508 78.7601 86.2617C78.5687 86.4688 78.3636 86.6406 78.1448 86.7773C77.9261 86.9102 77.6898 87.0078 77.4359 87.0703C77.182 87.1328 76.9066 87.1641 76.6097 87.1641C75.7581 87.1641 75.0745 86.8906 74.5589 86.3438C74.0433 85.793 73.7855 85.0625 73.7855 84.1523C73.7855 83.25 74.0355 82.5195 74.5355 81.9609C75.0394 81.4102 75.7073 81.1348 76.5394 81.1348C77.3792 81.1348 78.0433 81.4024 78.5316 81.9375C79.0159 82.4688 79.2581 83.2051 79.2581 84.1465L79.2523 84.457ZM77.8987 83.3789C77.7152 82.6758 77.2718 82.3242 76.5687 82.3242C76.4085 82.3242 76.2581 82.3496 76.1175 82.4004C75.9769 82.4473 75.848 82.5176 75.7308 82.6113C75.6175 82.7012 75.5198 82.8106 75.4378 82.9395C75.3558 83.0684 75.2933 83.2148 75.2503 83.3789H77.8987ZM80.6995 81.293H82.0179V81.8027C82.2601 81.5488 82.4749 81.375 82.6624 81.2813C82.8538 81.1836 83.0804 81.1348 83.3421 81.1348C83.6898 81.1348 84.053 81.2481 84.4319 81.4746L83.8284 82.6816C83.5784 82.502 83.3343 82.4121 83.096 82.4121C82.3773 82.4121 82.0179 82.9551 82.0179 84.041V87H80.6995V81.293Z" fill="white"/>
<path d="M36.25 21.5H33.5V13.25C33.5 12.5207 33.2103 11.8212 32.6945 11.3055C32.1788 10.7897 31.4793 10.5 30.75 10.5C30.0206 10.5 29.3212 10.7897 28.8054 11.3055C28.2897 11.8212 28 12.5207 28 13.25V21.5H25.25C24.5207 21.5 23.8212 21.7897 23.3055 22.3054C22.7897 22.8212 22.5 23.5206 22.5 24.25C22.5 24.9793 22.7897 25.6788 23.3055 26.1945C23.8212 26.7102 24.5207 27 25.25 27H36.25C36.9793 27 37.6788 26.7102 38.1945 26.1945C38.7102 25.6788 39 24.9793 39 24.25C39 23.5206 38.7102 22.8212 38.1945 22.3054C37.6788 21.7897 36.9793 21.5 36.25 21.5ZM30.75 32.5C30.0206 32.5 29.3212 32.7897 28.8054 33.3054C28.2897 33.8211 28 34.5206 28 35.25V62.7499C28 63.4793 28.2897 64.1787 28.8054 64.6945C29.3212 65.2102 30.0206 65.4999 30.75 65.4999C31.4793 65.4999 32.1788 65.2102 32.6945 64.6945C33.2103 64.1787 33.5 63.4793 33.5 62.7499V35.25C33.5 34.5206 33.2103 33.8211 32.6945 33.3054C32.1788 32.7897 31.4793 32.5 30.75 32.5ZM50 54.4999C49.2706 54.4999 48.5711 54.7897 48.0554 55.3054C47.5397 55.8211 47.25 56.5206 47.25 57.2499V62.7499C47.25 63.4793 47.5397 64.1787 48.0554 64.6945C48.5711 65.2102 49.2706 65.4999 50 65.4999C50.7293 65.4999 51.4288 65.2102 51.9445 64.6945C52.4602 64.1787 52.75 63.4793 52.75 62.7499V57.2499C52.75 56.5206 52.4602 55.8211 51.9445 55.3054C51.4288 54.7897 50.7293 54.4999 50 54.4999ZM74.7499 32.5H71.9999V13.25C71.9999 12.5207 71.7102 11.8212 71.1945 11.3055C70.6788 10.7897 69.9793 10.5 69.2499 10.5C68.5206 10.5 67.8211 10.7897 67.3054 11.3055C66.7897 11.8212 66.4999 12.5207 66.4999 13.25V32.5H63.7499C63.0206 32.5 62.3211 32.7897 61.8054 33.3054C61.2897 33.8211 60.9999 34.5206 60.9999 35.25C60.9999 35.9793 61.2897 36.6788 61.8054 37.1945C62.3211 37.7102 63.0206 38 63.7499 38H74.7499C75.4793 38 76.1787 37.7102 76.6945 37.1945C77.2102 36.6788 77.4999 35.9793 77.4999 35.25C77.4999 34.5206 77.2102 33.8211 76.6945 33.3054C76.1787 32.7897 75.4793 32.5 74.7499 32.5ZM69.2499 43.5C68.5206 43.5 67.8211 43.7897 67.3054 44.3054C66.7897 44.8211 66.4999 45.5206 66.4999 46.25V62.7499C66.4999 63.4793 66.7897 64.1787 67.3054 64.6945C67.8211 65.2102 68.5206 65.4999 69.2499 65.4999C69.9793 65.4999 70.6788 65.2102 71.1945 64.6945C71.7102 64.1787 71.9999 63.4793 71.9999 62.7499V46.25C71.9999 45.5206 71.7102 44.8211 71.1945 44.3054C70.6788 43.7897 69.9793 43.5 69.2499 43.5ZM55.5 43.5H52.75V13.25C52.75 12.5207 52.4602 11.8212 51.9445 11.3055C51.4288 10.7897 50.7293 10.5 50 10.5C49.2706 10.5 48.5711 10.7897 48.0554 11.3055C47.5397 11.8212 47.25 12.5207 47.25 13.25V43.5H44.5C43.7706 43.5 43.0712 43.7897 42.5554 44.3054C42.0397 44.8211 41.75 45.5206 41.75 46.25C41.75 46.9793 42.0397 47.6788 42.5554 48.1945C43.0712 48.7102 43.7706 48.9999 44.5 48.9999H55.5C56.2293 48.9999 56.9288 48.7102 57.4445 48.1945C57.9602 47.6788 58.25 46.9793 58.25 46.25C58.25 45.5206 57.9602 44.8211 57.4445 44.3054C56.9288 43.7897 56.2293 43.5 55.5 43.5Z" fill="white"/>
</svg>
