<svg width="48" height="22" viewBox="0 0 48 22" fill="none" xmlns="http://www.w3.org/2000/svg">
<rect y="21.8369" width="21.8367" height="47.0329" rx="5.40217" transform="rotate(-90 0 21.8369)" fill="#2D2D2D"/>
<path d="M7.47351 16V6.95312H8.83288C9.43835 6.95312 9.92077 7 10.2801 7.09375C10.6434 7.1875 10.9501 7.3457 11.2001 7.56836C11.454 7.79883 11.6551 8.08594 11.8036 8.42969C11.9559 8.77734 12.0321 9.12891 12.0321 9.48438C12.0321 10.1328 11.7841 10.6816 11.288 11.1309C11.7684 11.2949 12.1473 11.582 12.4247 11.9922C12.7059 12.3984 12.8466 12.8711 12.8466 13.4102C12.8466 14.1172 12.5966 14.7148 12.0966 15.2031C11.7958 15.5039 11.4579 15.7129 11.0829 15.8301C10.6727 15.9434 10.1591 16 9.54187 16H7.47351ZM8.83874 10.8379H9.26648C9.77429 10.8379 10.1454 10.7266 10.3798 10.5039C10.618 10.2773 10.7372 9.94531 10.7372 9.50781C10.7372 9.08203 10.6161 8.75977 10.3739 8.54102C10.1317 8.31836 9.78015 8.20703 9.31921 8.20703H8.83874V10.8379ZM8.83874 14.7168H9.68249C10.2997 14.7168 10.7528 14.5957 11.0419 14.3535C11.3466 14.0918 11.4989 13.7598 11.4989 13.3574C11.4989 12.9668 11.3524 12.6387 11.0594 12.373C10.7743 12.1113 10.2645 11.9805 9.53015 11.9805H8.83874V14.7168ZM19.5204 13.457H15.4305C15.4657 13.9258 15.618 14.2988 15.8876 14.5762C16.1571 14.8496 16.5028 14.9863 16.9247 14.9863C17.2528 14.9863 17.5243 14.9082 17.7391 14.752C17.9501 14.5957 18.1903 14.3066 18.4598 13.8848L19.5731 14.5059C19.4012 14.7988 19.2196 15.0508 19.0282 15.2617C18.8368 15.4688 18.6317 15.6406 18.413 15.7773C18.1942 15.9102 17.9579 16.0078 17.704 16.0703C17.4501 16.1328 17.1747 16.1641 16.8778 16.1641C16.0262 16.1641 15.3426 15.8906 14.827 15.3438C14.3114 14.793 14.0536 14.0625 14.0536 13.1523C14.0536 12.25 14.3036 11.5195 14.8036 10.9609C15.3075 10.4102 15.9755 10.1348 16.8075 10.1348C17.6473 10.1348 18.3114 10.4023 18.7997 10.9375C19.2841 11.4688 19.5262 12.2051 19.5262 13.1465L19.5204 13.457ZM18.1669 12.3789C17.9833 11.6758 17.5399 11.3242 16.8368 11.3242C16.6766 11.3242 16.5262 11.3496 16.3856 11.4004C16.245 11.4473 16.1161 11.5176 15.9989 11.6113C15.8856 11.7012 15.788 11.8105 15.7059 11.9395C15.6239 12.0684 15.5614 12.2148 15.5184 12.3789H18.1669ZM25.1747 10.293H26.4989V16H25.1747V15.4023C24.6317 15.9102 24.0477 16.1641 23.4227 16.1641C22.6337 16.1641 21.9813 15.8789 21.4657 15.3086C20.954 14.7266 20.6981 14 20.6981 13.1289C20.6981 12.2734 20.954 11.5605 21.4657 10.9902C21.9774 10.4199 22.618 10.1348 23.3876 10.1348C24.0516 10.1348 24.6473 10.4082 25.1747 10.9551V10.293ZM22.0458 13.1289C22.0458 13.6758 22.1923 14.1211 22.4852 14.4648C22.786 14.8125 23.1649 14.9863 23.6219 14.9863C24.1102 14.9863 24.5048 14.8184 24.8055 14.4824C25.1063 14.1348 25.2567 13.6934 25.2567 13.1582C25.2567 12.623 25.1063 12.1816 24.8055 11.834C24.5048 11.4941 24.1141 11.3242 23.6337 11.3242C23.1805 11.3242 22.8016 11.4961 22.4969 11.8398C22.1962 12.1875 22.0458 12.6172 22.0458 13.1289ZM29.5223 11.5234V16H28.204V11.5234H27.6415V10.293H28.204V8.20117H29.5223V10.293H30.5477V11.5234H29.5223Z" fill="white"/>
<path d="M36.3752 11.1774L39.0564 13.6507C39.1145 13.7054 39.1837 13.7488 39.2598 13.7784C39.336 13.808 39.4177 13.8232 39.5002 13.8232C39.5827 13.8232 39.6644 13.808 39.7405 13.7784C39.8167 13.7488 39.8858 13.7054 39.9439 13.6507L42.5939 11.1774C42.6525 11.1231 42.699 11.0586 42.7307 10.9875C42.7625 10.9164 42.7788 10.8402 42.7788 10.7632C42.7788 10.6862 42.7625 10.6099 42.7307 10.5389C42.699 10.4678 42.6525 10.4033 42.5939 10.349C42.4768 10.2404 42.3184 10.1794 42.1533 10.1794C41.9882 10.1794 41.8298 10.2404 41.7127 10.349L39.5002 12.414L37.2877 10.349C37.1713 10.2413 37.0141 10.1805 36.8502 10.1799C36.7679 10.1794 36.6864 10.1941 36.6102 10.2232C36.5341 10.2522 36.4648 10.295 36.4064 10.349C36.3458 10.4013 36.2968 10.4643 36.2623 10.5343C36.2279 10.6044 36.2087 10.6801 36.2058 10.7571C36.2029 10.8341 36.2163 10.9109 36.2454 10.9831C36.2745 11.0552 36.3186 11.1212 36.3752 11.1774Z" fill="#6E97FF"/>
</svg>
