<svg width="48" height="22" viewBox="0 0 48 22" fill="none" xmlns="http://www.w3.org/2000/svg">
<rect y="21.8369" width="21.8367" height="47.0329" rx="5.40217" transform="rotate(-90 0 21.8369)" fill="#2D2D2D"/>
<path d="M12.4735 16V6.95312H13.8329C14.4384 6.95312 14.9208 7 15.2801 7.09375C15.6434 7.1875 15.9501 7.3457 16.2001 7.56836C16.454 7.79883 16.6551 8.08594 16.8036 8.42969C16.9559 8.77734 17.0321 9.12891 17.0321 9.48438C17.0321 10.1328 16.7841 10.6816 16.288 11.1309C16.7684 11.2949 17.1473 11.582 17.4247 11.9922C17.7059 12.3984 17.8466 12.8711 17.8466 13.4102C17.8466 14.1172 17.5966 14.7148 17.0966 15.2031C16.7958 15.5039 16.4579 15.7129 16.0829 15.8301C15.6727 15.9434 15.1591 16 14.5419 16H12.4735ZM13.8387 10.8379H14.2665C14.7743 10.8379 15.1454 10.7266 15.3798 10.5039C15.618 10.2773 15.7372 9.94531 15.7372 9.50781C15.7372 9.08203 15.6161 8.75977 15.3739 8.54102C15.1317 8.31836 14.7801 8.20703 14.3192 8.20703H13.8387V10.8379ZM13.8387 14.7168H14.6825C15.2997 14.7168 15.7528 14.5957 16.0419 14.3535C16.3466 14.0918 16.4989 13.7598 16.4989 13.3574C16.4989 12.9668 16.3524 12.6387 16.0594 12.373C15.7743 12.1113 15.2645 11.9805 14.5301 11.9805H13.8387V14.7168ZM24.5204 13.457H20.4305C20.4657 13.9258 20.618 14.2988 20.8876 14.5762C21.1571 14.8496 21.5028 14.9863 21.9247 14.9863C22.2528 14.9863 22.5243 14.9082 22.7391 14.752C22.9501 14.5957 23.1903 14.3066 23.4598 13.8848L24.5731 14.5059C24.4012 14.7988 24.2196 15.0508 24.0282 15.2617C23.8368 15.4688 23.6317 15.6406 23.413 15.7773C23.1942 15.9102 22.9579 16.0078 22.704 16.0703C22.4501 16.1328 22.1747 16.1641 21.8778 16.1641C21.0262 16.1641 20.3426 15.8906 19.827 15.3438C19.3114 14.793 19.0536 14.0625 19.0536 13.1523C19.0536 12.25 19.3036 11.5195 19.8036 10.9609C20.3075 10.4102 20.9755 10.1348 21.8075 10.1348C22.6473 10.1348 23.3114 10.4023 23.7997 10.9375C24.2841 11.4688 24.5262 12.2051 24.5262 13.1465L24.5204 13.457ZM23.1669 12.3789C22.9833 11.6758 22.5399 11.3242 21.8368 11.3242C21.6766 11.3242 21.5262 11.3496 21.3856 11.4004C21.245 11.4473 21.1161 11.5176 20.9989 11.6113C20.8856 11.7012 20.788 11.8105 20.7059 11.9395C20.6239 12.0684 20.5614 12.2148 20.5184 12.3789H23.1669ZM30.1747 10.293H31.4989V16H30.1747V15.4023C29.6317 15.9102 29.0477 16.1641 28.4227 16.1641C27.6337 16.1641 26.9813 15.8789 26.4657 15.3086C25.954 14.7266 25.6981 14 25.6981 13.1289C25.6981 12.2734 25.954 11.5605 26.4657 10.9902C26.9774 10.4199 27.618 10.1348 28.3876 10.1348C29.0516 10.1348 29.6473 10.4082 30.1747 10.9551V10.293ZM27.0458 13.1289C27.0458 13.6758 27.1923 14.1211 27.4852 14.4648C27.786 14.8125 28.1649 14.9863 28.6219 14.9863C29.1102 14.9863 29.5048 14.8184 29.8055 14.4824C30.1063 14.1348 30.2567 13.6934 30.2567 13.1582C30.2567 12.623 30.1063 12.1816 29.8055 11.834C29.5048 11.4941 29.1141 11.3242 28.6337 11.3242C28.1805 11.3242 27.8016 11.4961 27.4969 11.8398C27.1962 12.1875 27.0458 12.6172 27.0458 13.1289ZM34.5223 11.5234V16H33.204V11.5234H32.6415V10.293H33.204V8.20117H34.5223V10.293H35.5477V11.5234H34.5223Z" fill="white"/>
</svg>
