<svg width="44" height="21" viewBox="0 0 44 21" fill="none" xmlns="http://www.w3.org/2000/svg">
<rect y="20.8369" width="20.0652" height="43.2174" rx="5.40217" transform="rotate(-90 0 20.8369)" fill="#2D2D2D"/>
<path d="M9.97266 15V5.95312H11.332C11.9375 5.95312 12.4199 6 12.7793 6.09375C13.1426 6.1875 13.4492 6.3457 13.6992 6.56836C13.9531 6.79883 14.1543 7.08594 14.3027 7.42969C14.4551 7.77734 14.5312 8.12891 14.5312 8.48438C14.5312 9.13281 14.2832 9.68164 13.7871 10.1309C14.2676 10.2949 14.6465 10.582 14.9238 10.9922C15.2051 11.3984 15.3457 11.8711 15.3457 12.4102C15.3457 13.1172 15.0957 13.7148 14.5957 14.2031C14.2949 14.5039 13.957 14.7129 13.582 14.8301C13.1719 14.9434 12.6582 15 12.041 15H9.97266ZM11.3379 9.83789H11.7656C12.2734 9.83789 12.6445 9.72656 12.8789 9.50391C13.1172 9.27734 13.2363 8.94531 13.2363 8.50781C13.2363 8.08203 13.1152 7.75977 12.873 7.54102C12.6309 7.31836 12.2793 7.20703 11.8184 7.20703H11.3379V9.83789ZM11.3379 13.7168H12.1816C12.7988 13.7168 13.252 13.5957 13.541 13.3535C13.8457 13.0918 13.998 12.7598 13.998 12.3574C13.998 11.9668 13.8516 11.6387 13.5586 11.373C13.2734 11.1113 12.7637 10.9805 12.0293 10.9805H11.3379V13.7168ZM22.0195 12.457H17.9297C17.9648 12.9258 18.1172 13.2988 18.3867 13.5762C18.6562 13.8496 19.002 13.9863 19.4238 13.9863C19.752 13.9863 20.0234 13.9082 20.2383 13.752C20.4492 13.5957 20.6895 13.3066 20.959 12.8848L22.0723 13.5059C21.9004 13.7988 21.7188 14.0508 21.5273 14.2617C21.3359 14.4688 21.1309 14.6406 20.9121 14.7773C20.6934 14.9102 20.457 15.0078 20.2031 15.0703C19.9492 15.1328 19.6738 15.1641 19.377 15.1641C18.5254 15.1641 17.8418 14.8906 17.3262 14.3438C16.8105 13.793 16.5527 13.0625 16.5527 12.1523C16.5527 11.25 16.8027 10.5195 17.3027 9.96094C17.8066 9.41016 18.4746 9.13477 19.3066 9.13477C20.1465 9.13477 20.8105 9.40234 21.2988 9.9375C21.7832 10.4688 22.0254 11.2051 22.0254 12.1465L22.0195 12.457ZM20.666 11.3789C20.4824 10.6758 20.0391 10.3242 19.3359 10.3242C19.1758 10.3242 19.0254 10.3496 18.8848 10.4004C18.7441 10.4473 18.6152 10.5176 18.498 10.6113C18.3848 10.7012 18.2871 10.8105 18.2051 10.9395C18.123 11.0684 18.0605 11.2148 18.0176 11.3789H20.666ZM27.6738 9.29297H28.998V15H27.6738V14.4023C27.1309 14.9102 26.5469 15.1641 25.9219 15.1641C25.1328 15.1641 24.4805 14.8789 23.9648 14.3086C23.4531 13.7266 23.1973 13 23.1973 12.1289C23.1973 11.2734 23.4531 10.5605 23.9648 9.99023C24.4766 9.41992 25.1172 9.13477 25.8867 9.13477C26.5508 9.13477 27.1465 9.4082 27.6738 9.95508V9.29297ZM24.5449 12.1289C24.5449 12.6758 24.6914 13.1211 24.9844 13.4648C25.2852 13.8125 25.6641 13.9863 26.1211 13.9863C26.6094 13.9863 27.0039 13.8184 27.3047 13.4824C27.6055 13.1348 27.7559 12.6934 27.7559 12.1582C27.7559 11.623 27.6055 11.1816 27.3047 10.834C27.0039 10.4941 26.6133 10.3242 26.1328 10.3242C25.6797 10.3242 25.3008 10.4961 24.9961 10.8398C24.6953 11.1875 24.5449 11.6172 24.5449 12.1289ZM32.0215 10.5234V15H30.7031V10.5234H30.1406V9.29297H30.7031V7.20117H32.0215V9.29297H33.0469V10.5234H32.0215Z" fill="white"/>
</svg>
