<svg width="86" height="25" viewBox="0 0 86 25" fill="none" xmlns="http://www.w3.org/2000/svg">
<path d="M0.9 0.0749993L0.899999 13.35C0.899998 17.15 2.575 19 5.75 19L9.4 19C12.9 19 15.1 16.85 15.1 12.4C15.1 7.95 12.9 5.8 9.4 5.8L3.55 5.8L3.55 0.0749994L0.9 0.0749993ZM9.125 8.35C11.425 8.35 12.425 9.55 12.425 12.4C12.425 15.25 11.425 16.425 9.125 16.425L6.525 16.425C4.375 16.425 3.55 15.475 3.55 13.225L3.55 8.35L9.125 8.35ZM20.6078 5.8C17.3078 5.8 16.0078 7.65 16.0078 10.15L16.0078 14.65C16.0078 17.15 17.3078 19 20.6078 19L28.6828 19L28.6828 16.425L20.6078 16.425C19.1578 16.425 18.5828 15.65 18.5828 14.6L18.5828 13.65L24.8578 13.65C28.1078 13.65 29.3328 12.275 29.3328 9.85C29.3328 7.3 28.0078 5.8 24.8828 5.8L20.6078 5.8ZM18.5828 10.175C18.5828 9.15 19.1578 8.35 20.6078 8.35L24.8578 8.35C26.1578 8.35 26.7328 9 26.7328 10C26.7328 10.975 26.2078 11.575 24.7828 11.575L18.5828 11.575L18.5828 10.175ZM31.9414 5.8C30.6164 5.8 30.0914 6.3 30.0914 7.85L30.0914 19L32.7414 19L32.7414 8.725C32.7414 8.475 32.8414 8.35 33.0664 8.35L37.3914 8.35C40.1664 8.35 41.3664 9.5 41.3664 11.575L41.3664 19L44.0414 19L44.0414 11.575C44.0414 7.925 41.8664 5.8 37.3914 5.8L31.9414 5.8ZM45.2672 0.0750009L45.2672 19L47.9172 19L47.9172 13.5L49.1422 13.5C51.4672 13.5 51.9922 13.725 52.7672 15.1L54.9672 19L57.9422 19L55.5672 14.85C54.7672 13.475 54.1172 12.65 52.8672 12.3C53.9422 11.85 54.5672 11.125 55.2172 9.95L57.5172 5.8L54.6422 5.8L52.4422 9.775C51.6672 11.175 51.2422 11.275 49.1422 11.275L47.9172 11.275L47.9172 0.075001L45.2672 0.0750009ZM68.2813 5.8L63.8062 16.175L63.4562 16.175C62.9562 16.175 62.8312 16.1 62.6562 15.625L58.6812 5.8L55.8812 5.8L60.3062 16.9C60.7562 18.05 61.2812 18.525 62.7812 18.525L60.3062 24.3L63.1562 24.3L71.1062 5.8L68.2813 5.8Z" fill="white"/>
<path d="M76.5928 5.8C73.0678 5.8 70.8678 7.95 70.8678 12.4C70.8678 16.85 73.0678 19 76.5928 19L79.3678 19C82.8678 19 85.0928 16.85 85.0928 12.4C85.0928 7.95 82.8678 5.8 79.3678 5.8L76.5928 5.8ZM79.1178 8.35C81.3928 8.35 82.4178 9.55 82.4178 12.4C82.4178 15.25 81.3928 16.425 79.1178 16.425L76.8428 16.425C74.5428 16.425 73.5428 15.25 73.5428 12.4C73.5428 9.55 74.5428 8.35 76.8428 8.35L79.1178 8.35ZM72.2428 1.075L72.2428 3.3L83.7178 3.3L83.7178 1.075L72.2428 1.075Z" fill="#6E97FF"/>
</svg>
