<svg width="86" height="25" viewBox="0 0 86 25" fill="none" xmlns="http://www.w3.org/2000/svg">
<path d="M0.9 0.0749993V13.35C0.9 17.15 2.575 19 5.75 19H9.4C12.9 19 15.1 16.85 15.1 12.4C15.1 7.95 12.9 5.8 9.4 5.8H3.55V0.0749993H0.9ZM9.125 8.35C11.425 8.35 12.425 9.55 12.425 12.4C12.425 15.25 11.425 16.425 9.125 16.425H6.525C4.375 16.425 3.55 15.475 3.55 13.225V8.35H9.125ZM20.8578 5.8C17.5578 5.8 16.2578 7.65 16.2578 10.15V14.65C16.2578 17.15 17.5578 19 20.8578 19H28.9328V16.425H20.8578C19.4078 16.425 18.8328 15.65 18.8328 14.6V13.65H25.1078C28.3578 13.65 29.5828 12.275 29.5828 9.85C29.5828 7.3 28.2578 5.8 25.1328 5.8H20.8578ZM18.8328 10.175C18.8328 9.15 19.4078 8.35 20.8578 8.35H25.1078C26.4078 8.35 26.9828 9 26.9828 10C26.9828 10.975 26.4578 11.575 25.0328 11.575H18.8328V10.175ZM32.6914 5.8C31.3664 5.8 30.8414 6.3 30.8414 7.85V19H33.4914V8.725C33.4914 8.475 33.5914 8.35 33.8164 8.35H38.1414C40.9164 8.35 42.1164 9.5 42.1164 11.575V19H44.7914V11.575C44.7914 7.925 42.6164 5.8 38.1414 5.8H32.6914ZM46.0172 0.0749993V19H48.6672V13.5H49.8922C52.2172 13.5 52.7422 13.725 53.5172 15.1L55.7172 19H58.6922L56.3172 14.85C55.5172 13.475 54.8672 12.65 53.6172 12.3C54.6922 11.85 55.3172 11.125 55.9672 9.95L58.2672 5.8H55.3922L53.1922 9.775C52.4172 11.175 51.9922 11.275 49.8922 11.275H48.6672V0.0749993H46.0172ZM69.0313 5.8L64.5563 16.175H64.2063C63.7063 16.175 63.5813 16.1 63.4063 15.625L59.4313 5.8H56.6313L61.0563 16.9C61.5063 18.05 62.0313 18.525 63.5313 18.525L61.0563 24.3H63.9063L71.8563 5.8H69.0313Z" fill="white"/>
<path d="M76.5928 5.8C73.0678 5.8 70.8678 7.95 70.8678 12.4C70.8678 16.85 73.0678 19 76.5928 19H79.3678C82.8678 19 85.0928 16.85 85.0928 12.4C85.0928 7.95 82.8678 5.8 79.3678 5.8H76.5928ZM79.1178 8.35C81.3928 8.35 82.4178 9.55 82.4178 12.4C82.4178 15.25 81.3928 16.425 79.1178 16.425H76.8428C74.5428 16.425 73.5428 15.25 73.5428 12.4C73.5428 9.55 74.5428 8.35 76.8428 8.35H79.1178ZM72.2428 1.075V3.3H83.7178V1.075H72.2428Z" fill="#6E97FF"/>
</svg>
