<svg width="44" height="21" viewBox="0 0 44 21" fill="none" xmlns="http://www.w3.org/2000/svg">
<rect y="20.0654" width="20.0652" height="43.2174" rx="5.40217" transform="rotate(-90 0 20.0654)" fill="#2D2D2D"/>
<path d="M9.80078 14V4.95312H11.1602C11.7656 4.95312 12.248 5 12.6074 5.09375C12.9707 5.1875 13.2773 5.3457 13.5273 5.56836C13.7812 5.79883 13.9824 6.08594 14.1309 6.42969C14.2832 6.77734 14.3594 7.12891 14.3594 7.48438C14.3594 8.13281 14.1113 8.68164 13.6152 9.13086C14.0957 9.29492 14.4746 9.58203 14.752 9.99219C15.0332 10.3984 15.1738 10.8711 15.1738 11.4102C15.1738 12.1172 14.9238 12.7148 14.4238 13.2031C14.123 13.5039 13.7852 13.7129 13.4102 13.8301C13 13.9434 12.4863 14 11.8691 14H9.80078ZM11.166 8.83789H11.5938C12.1016 8.83789 12.4727 8.72656 12.707 8.50391C12.9453 8.27734 13.0645 7.94531 13.0645 7.50781C13.0645 7.08203 12.9434 6.75977 12.7012 6.54102C12.459 6.31836 12.1074 6.20703 11.6465 6.20703H11.166V8.83789ZM11.166 12.7168H12.0098C12.627 12.7168 13.0801 12.5957 13.3691 12.3535C13.6738 12.0918 13.8262 11.7598 13.8262 11.3574C13.8262 10.9668 13.6797 10.6387 13.3867 10.373C13.1016 10.1113 12.5918 9.98047 11.8574 9.98047H11.166V12.7168ZM17.9688 8.29297V14H16.6504V8.29297H17.9688ZM16.4512 5.91992C16.4512 5.68945 16.5352 5.49023 16.7031 5.32227C16.8711 5.1543 17.0723 5.07031 17.3066 5.07031C17.5449 5.07031 17.748 5.1543 17.916 5.32227C18.084 5.48633 18.168 5.6875 18.168 5.92578C18.168 6.16406 18.084 6.36719 17.916 6.53516C17.752 6.70312 17.5508 6.78711 17.3125 6.78711C17.0742 6.78711 16.8711 6.70312 16.7031 6.53516C16.5352 6.36719 16.4512 6.16211 16.4512 5.91992ZM19.6387 8.29297H20.957V8.80273C21.1992 8.54883 21.4141 8.375 21.6016 8.28125C21.793 8.18359 22.0195 8.13477 22.2812 8.13477C22.6289 8.13477 22.9922 8.24805 23.3711 8.47461L22.7676 9.68164C22.5176 9.50195 22.2734 9.41211 22.0352 9.41211C21.3164 9.41211 20.957 9.95508 20.957 11.041V14H19.6387V8.29297ZM28.252 4.10352H29.5762V14H28.252V13.4023C27.7324 13.9102 27.1445 14.1641 26.4883 14.1641C25.707 14.1641 25.0586 13.8789 24.543 13.3086C24.0312 12.7266 23.7754 12 23.7754 11.1289C23.7754 10.2773 24.0312 9.56641 24.543 8.99609C25.0508 8.42188 25.6895 8.13477 26.459 8.13477C27.127 8.13477 27.7246 8.4082 28.252 8.95508V4.10352ZM25.123 11.1289C25.123 11.6758 25.2695 12.1211 25.5625 12.4648C25.8633 12.8125 26.2422 12.9863 26.6992 12.9863C27.1875 12.9863 27.582 12.8184 27.8828 12.4824C28.1836 12.1348 28.334 11.6934 28.334 11.1582C28.334 10.623 28.1836 10.1816 27.8828 9.83398C27.582 9.49414 27.1914 9.32422 26.7109 9.32422C26.2578 9.32422 25.8789 9.49609 25.5742 9.83984C25.2734 10.1875 25.123 10.6172 25.123 11.1289ZM34.5566 9.26562L33.4668 9.8457C33.2949 9.49414 33.082 9.31836 32.8281 9.31836C32.707 9.31836 32.6035 9.35938 32.5176 9.44141C32.4316 9.51953 32.3887 9.62109 32.3887 9.74609C32.3887 9.96484 32.6426 10.1816 33.1504 10.3965C33.8496 10.6973 34.3203 10.9746 34.5625 11.2285C34.8047 11.4824 34.9258 11.8242 34.9258 12.2539C34.9258 12.8047 34.7227 13.2656 34.3164 13.6367C33.9219 13.9883 33.4453 14.1641 32.8867 14.1641C31.9297 14.1641 31.252 13.6973 30.8535 12.7637L31.9785 12.2422C32.1348 12.5156 32.2539 12.6895 32.3359 12.7637C32.4961 12.9121 32.6875 12.9863 32.9102 12.9863C33.3555 12.9863 33.5781 12.7832 33.5781 12.377C33.5781 12.1426 33.4062 11.9238 33.0625 11.7207C32.9297 11.6543 32.7969 11.5898 32.6641 11.5273C32.5312 11.4648 32.3965 11.4004 32.2598 11.334C31.877 11.1465 31.6074 10.959 31.4512 10.7715C31.252 10.5332 31.1523 10.2266 31.1523 9.85156C31.1523 9.35547 31.3223 8.94531 31.6621 8.62109C32.0098 8.29688 32.4316 8.13477 32.9277 8.13477C33.6582 8.13477 34.2012 8.51172 34.5566 9.26562Z" fill="white"/>
</svg>
