<svg width="48" height="22" viewBox="0 0 48 22" fill="none" xmlns="http://www.w3.org/2000/svg">
<rect y="21.8369" width="21.8367" height="47.0329" rx="5.40217" transform="rotate(-90 0 21.8369)" fill="#2D2D2D"/>
<path d="M6.30163 16V6.95312H7.66101C8.26648 6.95312 8.7489 7 9.10827 7.09375C9.47156 7.1875 9.7782 7.3457 10.0282 7.56836C10.2821 7.79883 10.4833 8.08594 10.6317 8.42969C10.7841 8.77734 10.8602 9.12891 10.8602 9.48438C10.8602 10.1328 10.6122 10.6816 10.1161 11.1309C10.5966 11.2949 10.9755 11.582 11.2528 11.9922C11.5341 12.3984 11.6747 12.8711 11.6747 13.4102C11.6747 14.1172 11.4247 14.7148 10.9247 15.2031C10.6239 15.5039 10.286 15.7129 9.91101 15.8301C9.50085 15.9434 8.98718 16 8.36999 16H6.30163ZM7.66687 10.8379H8.0946C8.60242 10.8379 8.97351 10.7266 9.20788 10.5039C9.44617 10.2773 9.56531 9.94531 9.56531 9.50781C9.56531 9.08203 9.44421 8.75977 9.20202 8.54102C8.95984 8.31836 8.60827 8.20703 8.14734 8.20703H7.66687V10.8379ZM7.66687 14.7168H8.51062C9.12781 14.7168 9.58093 14.5957 9.86999 14.3535C10.1747 14.0918 10.327 13.7598 10.327 13.3574C10.327 12.9668 10.1805 12.6387 9.88757 12.373C9.60242 12.1113 9.09265 11.9805 8.35827 11.9805H7.66687V14.7168ZM14.4696 10.293V16H13.1512V10.293H14.4696ZM12.952 7.91992C12.952 7.68945 13.036 7.49023 13.204 7.32227C13.3719 7.1543 13.5731 7.07031 13.8075 7.07031C14.0458 7.07031 14.2489 7.1543 14.4169 7.32227C14.5848 7.48633 14.6688 7.6875 14.6688 7.92578C14.6688 8.16406 14.5848 8.36719 14.4169 8.53516C14.2528 8.70312 14.0516 8.78711 13.8134 8.78711C13.5751 8.78711 13.3719 8.70312 13.204 8.53516C13.036 8.36719 12.952 8.16211 12.952 7.91992ZM16.1395 10.293H17.4579V10.8027C17.7001 10.5488 17.9149 10.375 18.1024 10.2812C18.2938 10.1836 18.5204 10.1348 18.7821 10.1348C19.1298 10.1348 19.493 10.248 19.8719 10.4746L19.2684 11.6816C19.0184 11.502 18.7743 11.4121 18.536 11.4121C17.8173 11.4121 17.4579 11.9551 17.4579 13.041V16H16.1395V10.293ZM24.7528 6.10352H26.077V16H24.7528V15.4023C24.2333 15.9102 23.6454 16.1641 22.9891 16.1641C22.2079 16.1641 21.5594 15.8789 21.0438 15.3086C20.5321 14.7266 20.2762 14 20.2762 13.1289C20.2762 12.2773 20.5321 11.5664 21.0438 10.9961C21.5516 10.4219 22.1903 10.1348 22.9598 10.1348C23.6278 10.1348 24.2255 10.4082 24.7528 10.9551V6.10352ZM21.6239 13.1289C21.6239 13.6758 21.7704 14.1211 22.0634 14.4648C22.3641 14.8125 22.743 14.9863 23.2001 14.9863C23.6884 14.9863 24.0829 14.8184 24.3837 14.4824C24.6844 14.1348 24.8348 13.6934 24.8348 13.1582C24.8348 12.623 24.6844 12.1816 24.3837 11.834C24.0829 11.4941 23.6923 11.3242 23.2118 11.3242C22.7587 11.3242 22.3798 11.4961 22.0751 11.8398C21.7743 12.1875 21.6239 12.6172 21.6239 13.1289ZM31.0575 11.2656L29.9676 11.8457C29.7958 11.4941 29.5829 11.3184 29.329 11.3184C29.2079 11.3184 29.1044 11.3594 29.0184 11.4414C28.9325 11.5195 28.8895 11.6211 28.8895 11.7461C28.8895 11.9648 29.1434 12.1816 29.6512 12.3965C30.3505 12.6973 30.8212 12.9746 31.0634 13.2285C31.3055 13.4824 31.4266 13.8242 31.4266 14.2539C31.4266 14.8047 31.2235 15.2656 30.8173 15.6367C30.4227 15.9883 29.9462 16.1641 29.3876 16.1641C28.4305 16.1641 27.7528 15.6973 27.3544 14.7637L28.4794 14.2422C28.6356 14.5156 28.7548 14.6895 28.8368 14.7637C28.9969 14.9121 29.1884 14.9863 29.411 14.9863C29.8563 14.9863 30.079 14.7832 30.079 14.377C30.079 14.1426 29.9071 13.9238 29.5634 13.7207C29.4305 13.6543 29.2977 13.5898 29.1649 13.5273C29.0321 13.4648 28.8973 13.4004 28.7606 13.334C28.3778 13.1465 28.1083 12.959 27.952 12.7715C27.7528 12.5332 27.6532 12.2266 27.6532 11.8516C27.6532 11.3555 27.8231 10.9453 28.163 10.6211C28.5106 10.2969 28.9325 10.1348 29.4286 10.1348C30.1591 10.1348 30.702 10.5117 31.0575 11.2656Z" fill="white"/>
<path d="M36.3747 11.1774L39.0559 13.6507C39.114 13.7054 39.1832 13.7488 39.2593 13.7784C39.3355 13.808 39.4172 13.8232 39.4997 13.8232C39.5822 13.8232 39.6639 13.808 39.7401 13.7784C39.8162 13.7488 39.8853 13.7054 39.9434 13.6507L42.5934 11.1774C42.652 11.1231 42.6985 11.0586 42.7303 10.9875C42.762 10.9164 42.7783 10.8402 42.7783 10.7632C42.7783 10.6862 42.762 10.6099 42.7303 10.5389C42.6985 10.4678 42.652 10.4033 42.5934 10.349C42.4763 10.2404 42.3179 10.1794 42.1528 10.1794C41.9877 10.1794 41.8293 10.2404 41.7122 10.349L39.4997 12.414L37.2872 10.349C37.1708 10.2413 37.0137 10.1805 36.8497 10.1799C36.7674 10.1794 36.6859 10.1941 36.6098 10.2232C36.5336 10.2522 36.4643 10.295 36.4059 10.349C36.3453 10.4013 36.2963 10.4643 36.2619 10.5343C36.2274 10.6044 36.2082 10.6801 36.2053 10.7571C36.2024 10.8341 36.2159 10.9109 36.2449 10.9831C36.274 11.0552 36.3181 11.1212 36.3747 11.1774Z" fill="#6E97FF"/>
</svg>
