<svg width="48" height="22" viewBox="0 0 48 22" fill="none" xmlns="http://www.w3.org/2000/svg">
<rect y="21.8369" width="21.8367" height="47.0329" rx="5.40217" transform="rotate(-90 0 21.8369)" fill="#2D2D2D"/>
<path d="M11.3016 16V6.95312H12.661C13.2665 6.95312 13.7489 7 14.1083 7.09375C14.4716 7.1875 14.7782 7.3457 15.0282 7.56836C15.2821 7.79883 15.4833 8.08594 15.6317 8.42969C15.7841 8.77734 15.8602 9.12891 15.8602 9.48438C15.8602 10.1328 15.6122 10.6816 15.1161 11.1309C15.5966 11.2949 15.9755 11.582 16.2528 11.9922C16.5341 12.3984 16.6747 12.8711 16.6747 13.4102C16.6747 14.1172 16.4247 14.7148 15.9247 15.2031C15.6239 15.5039 15.286 15.7129 14.911 15.8301C14.5009 15.9434 13.9872 16 13.37 16H11.3016ZM12.6669 10.8379H13.0946C13.6024 10.8379 13.9735 10.7266 14.2079 10.5039C14.4462 10.2773 14.5653 9.94531 14.5653 9.50781C14.5653 9.08203 14.4442 8.75977 14.202 8.54102C13.9598 8.31836 13.6083 8.20703 13.1473 8.20703H12.6669V10.8379ZM12.6669 14.7168H13.5106C14.1278 14.7168 14.5809 14.5957 14.87 14.3535C15.1747 14.0918 15.327 13.7598 15.327 13.3574C15.327 12.9668 15.1805 12.6387 14.8876 12.373C14.6024 12.1113 14.0926 11.9805 13.3583 11.9805H12.6669V14.7168ZM19.4696 10.293V16H18.1512V10.293H19.4696ZM17.952 7.91992C17.952 7.68945 18.036 7.49023 18.204 7.32227C18.3719 7.1543 18.5731 7.07031 18.8075 7.07031C19.0458 7.07031 19.2489 7.1543 19.4169 7.32227C19.5848 7.48633 19.6688 7.6875 19.6688 7.92578C19.6688 8.16406 19.5848 8.36719 19.4169 8.53516C19.2528 8.70312 19.0516 8.78711 18.8134 8.78711C18.5751 8.78711 18.3719 8.70312 18.204 8.53516C18.036 8.36719 17.952 8.16211 17.952 7.91992ZM21.1395 10.293H22.4579V10.8027C22.7001 10.5488 22.9149 10.375 23.1024 10.2812C23.2938 10.1836 23.5204 10.1348 23.7821 10.1348C24.1298 10.1348 24.493 10.248 24.8719 10.4746L24.2684 11.6816C24.0184 11.502 23.7743 11.4121 23.536 11.4121C22.8173 11.4121 22.4579 11.9551 22.4579 13.041V16H21.1395V10.293ZM29.7528 6.10352H31.077V16H29.7528V15.4023C29.2333 15.9102 28.6454 16.1641 27.9891 16.1641C27.2079 16.1641 26.5594 15.8789 26.0438 15.3086C25.5321 14.7266 25.2762 14 25.2762 13.1289C25.2762 12.2773 25.5321 11.5664 26.0438 10.9961C26.5516 10.4219 27.1903 10.1348 27.9598 10.1348C28.6278 10.1348 29.2255 10.4082 29.7528 10.9551V6.10352ZM26.6239 13.1289C26.6239 13.6758 26.7704 14.1211 27.0634 14.4648C27.3641 14.8125 27.743 14.9863 28.2001 14.9863C28.6884 14.9863 29.0829 14.8184 29.3837 14.4824C29.6844 14.1348 29.8348 13.6934 29.8348 13.1582C29.8348 12.623 29.6844 12.1816 29.3837 11.834C29.0829 11.4941 28.6923 11.3242 28.2118 11.3242C27.7587 11.3242 27.3798 11.4961 27.0751 11.8398C26.7743 12.1875 26.6239 12.6172 26.6239 13.1289ZM36.0575 11.2656L34.9676 11.8457C34.7958 11.4941 34.5829 11.3184 34.329 11.3184C34.2079 11.3184 34.1044 11.3594 34.0184 11.4414C33.9325 11.5195 33.8895 11.6211 33.8895 11.7461C33.8895 11.9648 34.1434 12.1816 34.6512 12.3965C35.3505 12.6973 35.8212 12.9746 36.0634 13.2285C36.3055 13.4824 36.4266 13.8242 36.4266 14.2539C36.4266 14.8047 36.2235 15.2656 35.8173 15.6367C35.4227 15.9883 34.9462 16.1641 34.3876 16.1641C33.4305 16.1641 32.7528 15.6973 32.3544 14.7637L33.4794 14.2422C33.6356 14.5156 33.7548 14.6895 33.8368 14.7637C33.9969 14.9121 34.1884 14.9863 34.411 14.9863C34.8563 14.9863 35.079 14.7832 35.079 14.377C35.079 14.1426 34.9071 13.9238 34.5634 13.7207C34.4305 13.6543 34.2977 13.5898 34.1649 13.5273C34.0321 13.4648 33.8973 13.4004 33.7606 13.334C33.3778 13.1465 33.1083 12.959 32.952 12.7715C32.7528 12.5332 32.6532 12.2266 32.6532 11.8516C32.6532 11.3555 32.8231 10.9453 33.163 10.6211C33.5106 10.2969 33.9325 10.1348 34.4286 10.1348C35.1591 10.1348 35.702 10.5117 36.0575 11.2656Z" fill="white"/>
</svg>
