<svg width="100" height="95" viewBox="0 0 100 95" fill="none" xmlns="http://www.w3.org/2000/svg">
<path d="M0.28418 8.60127C0.28418 3.85092 4.13511 0 8.88546 0H90.6828C95.4332 0 99.2841 3.85093 99.2841 8.60128V86.3986C99.2841 91.149 95.4332 94.9999 90.6828 94.9999H8.88545C4.1351 94.9999 0.28418 91.149 0.28418 86.3986V8.60127Z" fill="#393939"/>
<path d="M60.7952 39.7968C63.5729 37.6113 65.6005 34.6144 66.5957 31.223C67.5909 27.8315 67.5043 24.2142 66.3479 20.8743C65.1915 17.5344 63.0229 14.6379 60.1437 12.5879C57.2645 10.5379 53.818 9.43624 50.2835 9.43624C46.7491 9.43624 43.3025 10.5379 40.4233 12.5879C37.5441 14.6379 35.3755 17.5344 34.2191 20.8743C33.0628 24.2142 32.9761 27.8315 33.9713 31.223C34.9666 34.6144 36.9941 37.6113 39.7719 39.7968C35.0121 41.7037 30.859 44.8666 27.7554 48.9482C24.6518 53.0298 22.714 57.8771 22.1485 62.9734C22.1076 63.3455 22.1404 63.722 22.2449 64.0814C22.3495 64.4408 22.5239 64.7761 22.758 65.0682C23.2309 65.658 23.9188 66.0358 24.6702 66.1184C25.4216 66.2011 26.1752 65.9818 26.765 65.5089C27.3548 65.036 27.7325 64.3482 27.8152 63.5968C28.4374 58.0581 31.0783 52.9429 35.2335 49.2284C39.3886 45.5138 44.7667 43.4604 50.3402 43.4604C55.9136 43.4604 61.2917 45.5138 65.4469 49.2284C69.6021 52.9429 72.243 58.0581 72.8652 63.5968C72.9422 64.293 73.2744 64.936 73.7976 65.4016C74.3209 65.8673 74.998 66.1227 75.6985 66.1184H76.0102C76.7529 66.033 77.4317 65.6574 77.8987 65.0736C78.3658 64.4898 78.5831 63.7451 78.5035 63.0018C77.9354 57.891 75.9871 53.0312 72.8676 48.9434C69.748 44.8555 65.5748 41.6936 60.7952 39.7968ZM50.2835 37.7851C48.042 37.7851 45.8508 37.1204 43.9871 35.8751C42.1233 34.6298 40.6707 32.8598 39.8129 30.7889C38.9551 28.718 38.7307 26.4392 39.168 24.2408C39.6053 22.0423 40.6846 20.0229 42.2696 18.4379C43.8546 16.8529 45.874 15.7735 48.0725 15.3362C50.2709 14.8989 52.5497 15.1234 54.6206 15.9812C56.6915 16.839 58.4615 18.2916 59.7068 20.1553C60.9522 22.0191 61.6168 24.2103 61.6168 26.4518C61.6168 29.4576 60.4228 32.3403 58.2974 34.4657C56.172 36.5911 53.2893 37.7851 50.2835 37.7851Z" fill="white"/>
<path d="M31.0359 78.2252V79.8424C30.2468 79.1822 29.4304 78.8522 28.5867 78.8522C27.657 78.8522 26.8738 79.1861 26.2371 79.8541C25.5965 80.5182 25.2761 81.3307 25.2761 82.2916C25.2761 83.2408 25.5965 84.0416 26.2371 84.694C26.8777 85.3463 27.6629 85.6725 28.5926 85.6725C29.073 85.6725 29.4812 85.5943 29.8172 85.4381C30.0047 85.36 30.198 85.2545 30.3972 85.1217C30.6004 84.9889 30.8133 84.8287 31.0359 84.6412V86.2877C30.2547 86.7291 29.4344 86.9498 28.575 86.9498C27.282 86.9498 26.1785 86.4986 25.2644 85.5963C24.3543 84.6861 23.8992 83.5885 23.8992 82.3033C23.8992 81.151 24.2801 80.1236 25.0418 79.2213C25.9793 78.1158 27.1922 77.5631 28.6804 77.5631C29.4929 77.5631 30.2781 77.7838 31.0359 78.2252Z" fill="white"/>
<path d="M32.5125 76.8893H33.8308V81.5533C34.2996 81.1315 34.8172 80.9205 35.3836 80.9205C36.0281 80.9205 36.5437 81.1295 36.9304 81.5475C37.2586 81.9108 37.4226 82.4908 37.4226 83.2877V86.7858H36.1043V83.4108C36.1043 82.9537 36.0222 82.6236 35.8582 82.4205C35.698 82.2135 35.4383 82.11 35.0789 82.11C34.6179 82.11 34.2937 82.2525 34.1062 82.5377C33.9226 82.8268 33.8308 83.3229 33.8308 84.026V86.7858H32.5125V76.8893Z" fill="white"/>
<path d="M43.3054 81.0787H44.6297V86.7858H43.3054V86.1881C42.7625 86.6959 42.1785 86.9498 41.5535 86.9498C40.7644 86.9498 40.1121 86.6647 39.5965 86.0943C39.0847 85.5123 38.8289 84.7858 38.8289 83.9147C38.8289 83.0592 39.0847 82.3463 39.5965 81.776C40.1082 81.2057 40.7488 80.9205 41.5183 80.9205C42.1824 80.9205 42.7781 81.194 43.3054 81.7408V81.0787ZM40.1765 83.9147C40.1765 84.4615 40.323 84.9068 40.616 85.2506C40.9168 85.5983 41.2957 85.7721 41.7527 85.7721C42.241 85.7721 42.6355 85.6041 42.9363 85.2682C43.2371 84.9205 43.3875 84.4791 43.3875 83.944C43.3875 83.4088 43.2371 82.9674 42.9363 82.6197C42.6355 82.2799 42.2449 82.11 41.7644 82.11C41.3113 82.11 40.9324 82.2818 40.6277 82.6256C40.3269 82.9733 40.1765 83.4029 40.1765 83.9147Z" fill="white"/>
<path d="M46.2937 81.0787H47.6121V81.5885C47.8543 81.3346 48.0691 81.1608 48.2566 81.067C48.448 80.9694 48.6746 80.9205 48.9363 80.9205C49.2839 80.9205 49.6472 81.0338 50.0261 81.2604L49.4226 82.4674C49.1726 82.2877 48.9285 82.1979 48.6902 82.1979C47.9714 82.1979 47.6121 82.7408 47.6121 83.8268V86.7858H46.2937V81.0787Z" fill="white"/>
<path d="M54.907 81.0787H56.2312V86.7858H54.907V86.1881C54.364 86.6959 53.78 86.9498 53.155 86.9498C52.366 86.9498 51.7136 86.6647 51.198 86.0943C50.6863 85.5123 50.4304 84.7858 50.4304 83.9147C50.4304 83.0592 50.6863 82.3463 51.198 81.776C51.7097 81.2057 52.3503 80.9205 53.1199 80.9205C53.7839 80.9205 54.3796 81.194 54.907 81.7408V81.0787ZM51.7781 83.9147C51.7781 84.4615 51.9246 84.9068 52.2175 85.2506C52.5183 85.5983 52.8972 85.7721 53.3543 85.7721C53.8425 85.7721 54.2371 85.6041 54.5378 85.2682C54.8386 84.9205 54.989 84.4791 54.989 83.944C54.989 83.4088 54.8386 82.9674 54.5378 82.6197C54.2371 82.2799 53.8464 82.11 53.366 82.11C52.9128 82.11 52.5339 82.2818 52.2293 82.6256C51.9285 82.9733 51.7781 83.4029 51.7781 83.9147Z" fill="white"/>
<path d="M62.3367 81.3248V83.0768C62.0359 82.7096 61.7663 82.4576 61.5281 82.3209C61.2937 82.1803 61.0183 82.11 60.7019 82.11C60.2058 82.11 59.7937 82.2838 59.4656 82.6315C59.1374 82.9791 58.9734 83.4147 58.9734 83.9381C58.9734 84.4733 59.1316 84.9127 59.448 85.2565C59.7683 85.6002 60.1765 85.7721 60.6726 85.7721C60.989 85.7721 61.2683 85.7037 61.5105 85.567C61.7449 85.4342 62.0203 85.1764 62.3367 84.7936V86.5338C61.8015 86.8111 61.2664 86.9498 60.7312 86.9498C59.8484 86.9498 59.1101 86.6647 58.5164 86.0943C57.9226 85.5201 57.6257 84.8072 57.6257 83.9557C57.6257 83.1041 57.9265 82.3854 58.5281 81.7994C59.1296 81.2135 59.8679 80.9205 60.7429 80.9205C61.3054 80.9205 61.8367 81.0553 62.3367 81.3248Z" fill="white"/>
<path d="M64.9734 82.3092V86.7858H63.655V82.3092H63.0925V81.0787H63.655V78.9869H64.9734V81.0787H65.9988V82.3092H64.9734Z" fill="white"/>
<path d="M72.198 84.2428H68.1081C68.1433 84.7115 68.2956 85.0846 68.5652 85.3619C68.8347 85.6354 69.1804 85.7721 69.6023 85.7721C69.9304 85.7721 70.2019 85.694 70.4167 85.5377C70.6277 85.3815 70.8679 85.0924 71.1374 84.6705L72.2507 85.2916C72.0788 85.5846 71.8972 85.8365 71.7058 86.0475C71.5144 86.2545 71.3093 86.4264 71.0906 86.5631C70.8718 86.6959 70.6355 86.7936 70.3816 86.8561C70.1277 86.9186 69.8523 86.9498 69.5554 86.9498C68.7038 86.9498 68.0203 86.6764 67.5046 86.1295C66.989 85.5787 66.7312 84.8483 66.7312 83.9381C66.7312 83.0358 66.9812 82.3053 67.4812 81.7467C67.9851 81.1959 68.6531 80.9205 69.4851 80.9205C70.3249 80.9205 70.989 81.1881 71.4773 81.7233C71.9617 82.2545 72.2038 82.9908 72.2038 83.9322L72.198 84.2428ZM70.8445 83.1647C70.6609 82.4615 70.2175 82.11 69.5144 82.11C69.3542 82.11 69.2038 82.1354 69.0632 82.1861C68.9226 82.233 68.7937 82.3033 68.6765 82.3971C68.5632 82.4869 68.4656 82.5963 68.3835 82.7252C68.3015 82.8541 68.239 83.0006 68.196 83.1647H70.8445Z" fill="white"/>
<path d="M73.6452 81.0787H74.9636V81.5885C75.2058 81.3346 75.4206 81.1608 75.6081 81.067C75.7995 80.9694 76.0261 80.9205 76.2878 80.9205C76.6355 80.9205 76.9988 81.0338 77.3777 81.2604L76.7742 82.4674C76.5242 82.2877 76.28 82.1979 76.0417 82.1979C75.323 82.1979 74.9636 82.7408 74.9636 83.8268V86.7858H73.6452V81.0787Z" fill="white"/>
</svg>
