<svg width="44" height="21" viewBox="0 0 44 21" fill="none" xmlns="http://www.w3.org/2000/svg">
<rect x="0.673828" y="20.8369" width="20.837" height="43.2174" rx="5.40217" transform="rotate(-90 0.673828 20.8369)" fill="#2D2D2D"/>
<path d="M17.5176 7.23633H14.3652V9.41016H17.4062V10.6934H14.3652V15H13V5.95312H17.5176V7.23633ZM20.1953 9.29297V15H18.877V9.29297H20.1953ZM18.6777 6.91992C18.6777 6.68945 18.7617 6.49023 18.9297 6.32227C19.0977 6.1543 19.2988 6.07031 19.5332 6.07031C19.7715 6.07031 19.9746 6.1543 20.1426 6.32227C20.3105 6.48633 20.3945 6.6875 20.3945 6.92578C20.3945 7.16406 20.3105 7.36719 20.1426 7.53516C19.9785 7.70312 19.7773 7.78711 19.5391 7.78711C19.3008 7.78711 19.0977 7.70312 18.9297 7.53516C18.7617 7.36719 18.6777 7.16211 18.6777 6.91992ZM21.8652 9.29297H23.1836V9.80273C23.4258 9.54883 23.6406 9.375 23.8281 9.28125C24.0195 9.18359 24.2461 9.13477 24.5078 9.13477C24.8555 9.13477 25.2188 9.24805 25.5977 9.47461L24.9941 10.6816C24.7441 10.502 24.5 10.4121 24.2617 10.4121C23.543 10.4121 23.1836 10.9551 23.1836 12.041V15H21.8652V9.29297ZM31.4688 12.457H27.3789C27.4141 12.9258 27.5664 13.2988 27.8359 13.5762C28.1055 13.8496 28.4512 13.9863 28.873 13.9863C29.2012 13.9863 29.4727 13.9082 29.6875 13.752C29.8984 13.5957 30.1387 13.3066 30.4082 12.8848L31.5215 13.5059C31.3496 13.7988 31.168 14.0508 30.9766 14.2617C30.7852 14.4688 30.5801 14.6406 30.3613 14.7773C30.1426 14.9102 29.9062 15.0078 29.6523 15.0703C29.3984 15.1328 29.123 15.1641 28.8262 15.1641C27.9746 15.1641 27.291 14.8906 26.7754 14.3438C26.2598 13.793 26.002 13.0625 26.002 12.1523C26.002 11.25 26.252 10.5195 26.752 9.96094C27.2559 9.41016 27.9238 9.13477 28.7559 9.13477C29.5957 9.13477 30.2598 9.40234 30.748 9.9375C31.2324 10.4688 31.4746 11.2051 31.4746 12.1465L31.4688 12.457ZM30.1152 11.3789C29.9316 10.6758 29.4883 10.3242 28.7852 10.3242C28.625 10.3242 28.4746 10.3496 28.334 10.4004C28.1934 10.4473 28.0645 10.5176 27.9473 10.6113C27.834 10.7012 27.7363 10.8105 27.6543 10.9395C27.5723 11.0684 27.5098 11.2148 27.4668 11.3789H30.1152Z" fill="white"/>
</svg>
