<svg width="29" height="31" viewBox="0 0 29 31" fill="none" xmlns="http://www.w3.org/2000/svg">
<path d="M16.2039 9.04172L11.0806 14.583C10.9673 14.7031 10.8774 14.8459 10.8161 15.0033C10.7547 15.1607 10.7231 15.3295 10.7231 15.5001C10.7231 15.6706 10.7547 15.8394 10.8161 15.9968C10.8774 16.1542 10.9673 16.2971 11.0806 16.4171L16.2039 21.8938C16.3162 22.0149 16.4499 22.111 16.5971 22.1765C16.7444 22.2421 16.9023 22.2759 17.0618 22.2759C17.2213 22.2759 17.3793 22.2421 17.5265 22.1765C17.6738 22.111 17.8074 22.0149 17.9197 21.8938C18.1448 21.6518 18.2711 21.3244 18.2711 20.9832C18.2711 20.6419 18.1448 20.3146 17.9197 20.0726L13.6422 15.5001L17.9197 10.9276C18.143 10.687 18.2688 10.3622 18.2702 10.0234C18.2711 9.8534 18.2406 9.68488 18.1805 9.52751C18.1203 9.37014 18.0317 9.227 17.9197 9.10631C17.8114 8.98092 17.681 8.87971 17.5359 8.80853C17.3908 8.73735 17.234 8.69761 17.0744 8.69161C16.9149 8.6856 16.7558 8.71345 16.6064 8.77355C16.457 8.83364 16.3202 8.92479 16.2039 9.04172Z" fill="#6E97FF"/>
</svg>
