<svg width="24" height="24" viewBox="0 0 24 24" fill="none" xmlns="http://www.w3.org/2000/svg">
<path d="M12.0011 3.95828C11.8443 3.89045 11.6723 3.86543 11.5027 3.88579C11.3331 3.90614 11.1719 3.97113 11.0356 4.07414L6.42064 7.72365L2.89663 7.72365C2.64057 7.72365 2.395 7.82537 2.21393 8.00643C2.03287 8.1875 1.93115 8.43307 1.93115 8.68913L1.93115 14.482C1.93115 14.7381 2.03287 14.9836 2.21393 15.1647C2.395 15.3458 2.64057 15.4475 2.89663 15.4475L6.42064 15.4475L10.9874 19.097C11.1572 19.2333 11.3682 19.3082 11.586 19.3094C11.7302 19.3118 11.8728 19.2786 12.0011 19.2129C12.1654 19.1346 12.3042 19.0115 12.4016 18.8578C12.499 18.704 12.5509 18.5259 12.5514 18.3439L12.5514 4.82721C12.5509 4.64523 12.499 4.4671 12.4016 4.31336C12.3043 4.15962 12.1654 4.03653 12.0011 3.95828ZM10.6205 16.3357L7.35715 13.7289C7.18729 13.5927 6.97633 13.5178 6.75855 13.5165L3.86211 13.5165L3.86211 9.65461L6.75855 9.65461C6.97633 9.65335 7.18729 9.57849 7.35715 9.44221L10.6205 6.83541L10.6205 16.3357ZM18.9815 6.12096C18.7997 5.93915 18.5532 5.83702 18.2961 5.83702C18.0389 5.83702 17.7924 5.93915 17.6106 6.12096C17.4288 6.30276 17.3266 6.54934 17.3266 6.80645C17.3266 7.06356 17.4288 7.31014 17.6106 7.49194C18.1791 8.05958 18.6233 8.73927 18.915 9.48783C19.2068 10.2364 19.3396 11.0374 19.3051 11.8401C19.2706 12.6427 19.0695 13.4294 18.7146 14.1502C18.3597 14.871 17.8588 15.51 17.2437 16.0268C17.0943 16.1545 16.9874 16.3248 16.9374 16.5149C16.8874 16.705 16.8966 16.9058 16.9638 17.0905C17.0309 17.2753 17.1529 17.4351 17.3133 17.5486C17.4738 17.6622 17.665 17.7241 17.8616 17.726C18.0872 17.7265 18.3058 17.6479 18.4795 17.504C19.3011 16.8159 19.9704 15.9643 20.4451 15.0035C20.9197 14.0427 21.1892 12.9936 21.2364 11.923C21.2836 10.8524 21.1076 9.78364 20.7193 8.78476C20.3312 7.78588 19.7393 6.87872 18.9815 6.12096ZM16.2492 8.85327C16.1592 8.76325 16.0523 8.69184 15.9347 8.64312C15.8171 8.5944 15.691 8.56933 15.5637 8.56933C15.4364 8.56933 15.3104 8.5944 15.1928 8.64312C15.0751 8.69184 14.9683 8.76325 14.8782 8.85327C14.7882 8.94329 14.7168 9.05015 14.6681 9.16777C14.6194 9.28539 14.5943 9.41145 14.5943 9.53876C14.5943 9.66606 14.6194 9.79213 14.6681 9.90974C14.7168 10.0274 14.7882 10.1342 14.8782 10.2242C15.2409 10.5847 15.4457 11.0743 15.4479 11.5856C15.4481 11.8669 15.3869 12.1448 15.2685 12.4C15.1501 12.6551 14.9773 12.8813 14.7624 13.0628C14.6646 13.1438 14.5838 13.2434 14.5246 13.3557C14.4653 13.468 14.4289 13.5909 14.4172 13.7174C14.4055 13.8438 14.4189 13.9714 14.4566 14.0926C14.4943 14.2139 14.5556 14.3265 14.6369 14.4241C14.7186 14.5211 14.8187 14.6011 14.9313 14.6595C15.044 14.7179 15.1671 14.7534 15.2935 14.7642C15.42 14.775 15.5473 14.7607 15.6682 14.7222C15.7891 14.6837 15.9012 14.6218 15.9982 14.5399C16.4299 14.178 16.7772 13.726 17.0157 13.2156C17.2542 12.7053 17.3781 12.1489 17.3788 11.5856C17.3734 10.5623 16.968 9.58167 16.2492 8.85327Z" fill="#6E97FF"/>
</svg>
