<svg width="23" height="23" viewBox="0 0 23 23" fill="none" xmlns="http://www.w3.org/2000/svg">
<path d="M11.9119 3.92937C11.7563 3.86204 11.5856 3.83721 11.4172 3.85741C11.2489 3.87762 11.0889 3.94213 10.9536 4.04437L6.37275 7.66687L2.87484 7.66687C2.62067 7.66687 2.37691 7.76784 2.19719 7.94756C2.01747 8.12728 1.9165 8.37104 1.9165 8.6252L1.9165 14.3752C1.9165 14.6294 2.01747 14.8731 2.19719 15.0528C2.37691 15.2326 2.62067 15.3335 2.87484 15.3335L6.37275 15.3335L10.9057 18.956C11.0743 19.0913 11.2837 19.1656 11.4998 19.1669C11.643 19.1692 11.7845 19.1363 11.9119 19.071C12.075 18.9934 12.2128 18.8712 12.3095 18.7186C12.4061 18.566 12.4577 18.3892 12.4582 18.2085L12.4582 4.79187C12.4577 4.61124 12.4061 4.43443 12.3095 4.28183C12.2128 4.12922 12.075 4.00704 11.9119 3.92937V3.92937ZM10.5415 16.2152L7.30234 13.6277C7.13373 13.4924 6.92433 13.4181 6.70817 13.4169L3.83317 13.4169L3.83317 9.58354L6.70817 9.58354C6.92434 9.58228 7.13373 9.50798 7.30234 9.3727L10.5415 6.7852L10.5415 16.2152ZM18.8407 6.07604C18.6602 5.89558 18.4155 5.7942 18.1603 5.7942C17.905 5.7942 17.6603 5.89558 17.4798 6.07604C17.2994 6.2565 17.198 6.50125 17.198 6.75646C17.198 7.01166 17.2994 7.25642 17.4798 7.43687C18.0442 8.00031 18.4851 8.67498 18.7747 9.41799C19.0642 10.161 19.1961 10.9561 19.1618 11.7528C19.1276 12.5495 18.928 13.3304 18.5757 14.0458C18.2235 14.7613 17.7263 15.3956 17.1157 15.9085C16.9674 16.0353 16.8613 16.2044 16.8117 16.393C16.762 16.5817 16.7711 16.7811 16.8378 16.9644C16.9045 17.1478 17.0255 17.3064 17.1848 17.4191C17.344 17.5319 17.5339 17.5933 17.729 17.5952C17.9529 17.5956 18.1699 17.5177 18.3423 17.3748C19.1578 16.6918 19.8222 15.8465 20.2934 14.8928C20.7645 13.9391 21.032 12.8978 21.0789 11.8351C21.1257 10.7724 20.9509 9.71161 20.5656 8.72012C20.1803 7.72864 19.5929 6.82819 18.8407 6.07604V6.07604ZM16.1286 8.78812C16.0392 8.69877 15.9332 8.62789 15.8164 8.57953C15.6997 8.53117 15.5745 8.50628 15.4482 8.50628C15.3218 8.50628 15.1967 8.53117 15.0799 8.57953C14.9632 8.62789 14.8571 8.69877 14.7678 8.78812C14.6784 8.87748 14.6075 8.98355 14.5592 9.1003C14.5108 9.21705 14.4859 9.34217 14.4859 9.46854C14.4859 9.5949 14.5108 9.72003 14.5592 9.83678C14.6075 9.95352 14.6784 10.0596 14.7678 10.149C15.1277 10.5067 15.331 10.9927 15.3332 11.5002C15.3334 11.7794 15.2726 12.0553 15.1551 12.3086C15.0376 12.5618 14.8661 12.7864 14.6528 12.9665C14.5557 13.0469 14.4755 13.1457 14.4167 13.2572C14.3579 13.3687 14.3217 13.4907 14.3101 13.6162C14.2985 13.7418 14.3118 13.8683 14.3493 13.9887C14.3867 14.1091 14.4475 14.2209 14.5282 14.3177C14.6093 14.414 14.7086 14.4935 14.8205 14.5514C14.9323 14.6093 15.0545 14.6446 15.18 14.6553C15.3055 14.666 15.4318 14.6518 15.5518 14.6136C15.6719 14.5754 15.7832 14.514 15.8794 14.4327C16.3079 14.0734 16.6526 13.6248 16.8893 13.1182C17.1261 12.6116 17.2491 12.0594 17.2498 11.5002C17.2444 10.4845 16.842 9.51114 16.1286 8.78812V8.78812Z" fill="#6E97FF"/>
</svg>
