<svg width="23" height="23" viewBox="0 0 23 23" fill="none" xmlns="http://www.w3.org/2000/svg">
<path d="M16.2244 3.92937C16.0688 3.86204 15.8981 3.83721 15.7297 3.85741C15.5614 3.87762 15.4014 3.94213 15.2661 4.04437L10.6853 7.66687H7.18734C6.93317 7.66687 6.68942 7.76784 6.50969 7.94756C6.32997 8.12728 6.229 8.37104 6.229 8.6252V14.3752C6.229 14.6294 6.32997 14.8731 6.50969 15.0528C6.68942 15.2326 6.93317 15.3335 7.18734 15.3335H10.6853L15.2182 18.956C15.3868 19.0913 15.5962 19.1656 15.8123 19.1669C15.9555 19.1692 16.097 19.1363 16.2244 19.071C16.3875 18.9934 16.5253 18.8712 16.622 18.7186C16.7186 18.566 16.7702 18.3892 16.7707 18.2085V4.79187C16.7702 4.61124 16.7186 4.43443 16.622 4.28182C16.5253 4.12922 16.3875 4.00704 16.2244 3.92937V3.92937ZM14.854 16.2152L11.6148 13.6277C11.4462 13.4924 11.2368 13.4181 11.0207 13.4169H8.14567V9.58354H11.0207C11.2368 9.58228 11.4462 9.50798 11.6148 9.3727L14.854 6.7852V16.2152Z" fill="#8D8D8D"/>
</svg>
