<svg width="186" height="234" viewBox="0 0 186 234" fill="none" xmlns="http://www.w3.org/2000/svg">
<path d="M75 62.4C29.175 62.4 0.574991 90.35 0.574986 148.2C0.574981 206.05 29.175 234 75 234L111.075 234C156.575 234 185.5 206.05 185.5 148.2C185.5 90.35 156.575 62.4 111.075 62.4L75 62.4ZM107.825 95.55C137.4 95.55 150.725 111.15 150.725 148.2C150.725 185.25 137.4 200.525 107.825 200.525L78.25 200.525C48.35 200.525 35.35 185.25 35.35 148.2C35.35 111.15 48.35 95.55 78.25 95.55L107.825 95.55ZM18.45 0.974999L18.45 29.9L167.625 29.9L167.625 0.975004L18.45 0.974999Z" fill="#6E97FF"/>
</svg>
