<svg width="48" height="22" viewBox="0 0 48 22" fill="none" xmlns="http://www.w3.org/2000/svg">
<rect y="21.8369" width="21.8367" height="47.0329" rx="5.40217" transform="rotate(-90 0 21.8369)" fill="#2D2D2D"/>
<path d="M10.7548 12.1445L13.5555 16H11.8856L9.30163 12.2969H9.05554V16H7.69031V6.95312H9.28992C10.4852 6.95312 11.3485 7.17773 11.8798 7.62695C12.4657 8.12695 12.7587 8.78711 12.7587 9.60742C12.7587 10.248 12.5751 10.7988 12.2079 11.2598C11.8407 11.7207 11.3563 12.0156 10.7548 12.1445ZM9.05554 11.1074H9.48913C10.7821 11.1074 11.4286 10.6133 11.4286 9.625C11.4286 8.69922 10.7997 8.23633 9.54187 8.23633H9.05554V11.1074ZM18.6649 10.293H19.9891V16H18.6649V15.4023C18.1219 15.9102 17.538 16.1641 16.913 16.1641C16.1239 16.1641 15.4716 15.8789 14.9559 15.3086C14.4442 14.7266 14.1884 14 14.1884 13.1289C14.1884 12.2734 14.4442 11.5605 14.9559 10.9902C15.4676 10.4199 16.1083 10.1348 16.8778 10.1348C17.5419 10.1348 18.1376 10.4082 18.6649 10.9551V10.293ZM15.536 13.1289C15.536 13.6758 15.6825 14.1211 15.9755 14.4648C16.2762 14.8125 16.6551 14.9863 17.1122 14.9863C17.6005 14.9863 17.995 14.8184 18.2958 14.4824C18.5966 14.1348 18.7469 13.6934 18.7469 13.1582C18.7469 12.623 18.5966 12.1816 18.2958 11.834C17.995 11.4941 17.6044 11.3242 17.1239 11.3242C16.6708 11.3242 16.2919 11.4961 15.9872 11.8398C15.6864 12.1875 15.536 12.6172 15.536 13.1289ZM22.9716 10.293V16H21.6532V10.293H22.9716ZM21.454 7.91992C21.454 7.68945 21.538 7.49023 21.7059 7.32227C21.8739 7.1543 22.0751 7.07031 22.3094 7.07031C22.5477 7.07031 22.7509 7.1543 22.9188 7.32227C23.0868 7.48633 23.1708 7.6875 23.1708 7.92578C23.1708 8.16406 23.0868 8.36719 22.9188 8.53516C22.7548 8.70312 22.5536 8.78711 22.3153 8.78711C22.077 8.78711 21.8739 8.70312 21.7059 8.53516C21.538 8.36719 21.454 8.16211 21.454 7.91992ZM24.6415 10.293H25.9657V10.8203C26.4266 10.3633 26.9462 10.1348 27.5243 10.1348C28.1884 10.1348 28.7059 10.3438 29.077 10.7617C29.3973 11.1172 29.5575 11.6973 29.5575 12.502V16H28.2333V12.8125C28.2333 12.25 28.1551 11.8613 27.9989 11.6465C27.8466 11.4277 27.5692 11.3184 27.1669 11.3184C26.7294 11.3184 26.4188 11.4629 26.2352 11.752C26.0555 12.0371 25.9657 12.5352 25.9657 13.2461V16H24.6415V10.293Z" fill="white"/>
<path d="M36.3747 11.1774L39.0559 13.6507C39.114 13.7054 39.1832 13.7488 39.2593 13.7784C39.3355 13.808 39.4172 13.8232 39.4997 13.8232C39.5822 13.8232 39.6639 13.808 39.7401 13.7784C39.8162 13.7488 39.8853 13.7054 39.9434 13.6507L42.5934 11.1774C42.652 11.1231 42.6985 11.0586 42.7303 10.9875C42.762 10.9164 42.7783 10.8402 42.7783 10.7632C42.7783 10.6862 42.762 10.6099 42.7303 10.5389C42.6985 10.4678 42.652 10.4033 42.5934 10.349C42.4763 10.2404 42.3179 10.1794 42.1528 10.1794C41.9877 10.1794 41.8293 10.2404 41.7122 10.349L39.4997 12.414L37.2872 10.349C37.1708 10.2413 37.0137 10.1805 36.8497 10.1799C36.7674 10.1794 36.6859 10.1941 36.6098 10.2232C36.5336 10.2522 36.4643 10.295 36.4059 10.349C36.3453 10.4013 36.2963 10.4643 36.2619 10.5343C36.2274 10.6044 36.2082 10.6801 36.2053 10.7571C36.2024 10.8341 36.2159 10.9109 36.2449 10.9831C36.274 11.0552 36.3181 11.1212 36.3747 11.1774Z" fill="#6E97FF"/>
</svg>
