<svg width="48" height="22" viewBox="0 0 48 22" fill="none" xmlns="http://www.w3.org/2000/svg">
<rect y="21.8369" width="21.8367" height="47.0329" rx="5.40217" transform="rotate(-90 0 21.8369)" fill="#2D2D2D"/>
<path d="M15.7548 12.1445L18.5555 16H16.8856L14.3016 12.2969H14.0555V16H12.6903V6.95312H14.2899C15.4852 6.95312 16.3485 7.17773 16.8798 7.62695C17.4657 8.12695 17.7587 8.78711 17.7587 9.60742C17.7587 10.248 17.5751 10.7988 17.2079 11.2598C16.8407 11.7207 16.3563 12.0156 15.7548 12.1445ZM14.0555 11.1074H14.4891C15.7821 11.1074 16.4286 10.6133 16.4286 9.625C16.4286 8.69922 15.7997 8.23633 14.5419 8.23633H14.0555V11.1074ZM23.6649 10.293H24.9891V16H23.6649V15.4023C23.1219 15.9102 22.538 16.1641 21.913 16.1641C21.1239 16.1641 20.4716 15.8789 19.9559 15.3086C19.4442 14.7266 19.1884 14 19.1884 13.1289C19.1884 12.2734 19.4442 11.5605 19.9559 10.9902C20.4676 10.4199 21.1083 10.1348 21.8778 10.1348C22.5419 10.1348 23.1376 10.4082 23.6649 10.9551V10.293ZM20.536 13.1289C20.536 13.6758 20.6825 14.1211 20.9755 14.4648C21.2762 14.8125 21.6551 14.9863 22.1122 14.9863C22.6005 14.9863 22.995 14.8184 23.2958 14.4824C23.5966 14.1348 23.7469 13.6934 23.7469 13.1582C23.7469 12.623 23.5966 12.1816 23.2958 11.834C22.995 11.4941 22.6044 11.3242 22.1239 11.3242C21.6708 11.3242 21.2919 11.4961 20.9872 11.8398C20.6864 12.1875 20.536 12.6172 20.536 13.1289ZM27.9716 10.293V16H26.6532V10.293H27.9716ZM26.454 7.91992C26.454 7.68945 26.538 7.49023 26.7059 7.32227C26.8739 7.1543 27.0751 7.07031 27.3094 7.07031C27.5477 7.07031 27.7509 7.1543 27.9188 7.32227C28.0868 7.48633 28.1708 7.6875 28.1708 7.92578C28.1708 8.16406 28.0868 8.36719 27.9188 8.53516C27.7548 8.70312 27.5536 8.78711 27.3153 8.78711C27.077 8.78711 26.8739 8.70312 26.7059 8.53516C26.538 8.36719 26.454 8.16211 26.454 7.91992ZM29.6415 10.293H30.9657V10.8203C31.4266 10.3633 31.9462 10.1348 32.5243 10.1348C33.1884 10.1348 33.7059 10.3438 34.077 10.7617C34.3973 11.1172 34.5575 11.6973 34.5575 12.502V16H33.2333V12.8125C33.2333 12.25 33.1551 11.8613 32.9989 11.6465C32.8466 11.4277 32.5692 11.3184 32.1669 11.3184C31.7294 11.3184 31.4188 11.4629 31.2352 11.752C31.0555 12.0371 30.9657 12.5352 30.9657 13.2461V16H29.6415V10.293Z" fill="white"/>
</svg>
