<svg width="44" height="21" viewBox="0 0 44 21" fill="none" xmlns="http://www.w3.org/2000/svg">
<rect x="0.336914" y="20.8369" width="20.0652" height="43.2174" rx="5.40217" transform="rotate(-90 0.336914 20.8369)" fill="#2D2D2D"/>
<path d="M14.2539 11.1445L17.0547 15H15.3848L12.8008 11.2969H12.5547V15H11.1895V5.95312H12.7891C13.9844 5.95312 14.8477 6.17773 15.3789 6.62695C15.9648 7.12695 16.2578 7.78711 16.2578 8.60742C16.2578 9.24805 16.0742 9.79883 15.707 10.2598C15.3398 10.7207 14.8555 11.0156 14.2539 11.1445ZM12.5547 10.1074H12.9883C14.2812 10.1074 14.9277 9.61328 14.9277 8.625C14.9277 7.69922 14.2988 7.23633 13.041 7.23633H12.5547V10.1074ZM22.1641 9.29297H23.4883V15H22.1641V14.4023C21.6211 14.9102 21.0371 15.1641 20.4121 15.1641C19.623 15.1641 18.9707 14.8789 18.4551 14.3086C17.9434 13.7266 17.6875 13 17.6875 12.1289C17.6875 11.2734 17.9434 10.5605 18.4551 9.99023C18.9668 9.41992 19.6074 9.13477 20.377 9.13477C21.041 9.13477 21.6367 9.4082 22.1641 9.95508V9.29297ZM19.0352 12.1289C19.0352 12.6758 19.1816 13.1211 19.4746 13.4648C19.7754 13.8125 20.1543 13.9863 20.6113 13.9863C21.0996 13.9863 21.4941 13.8184 21.7949 13.4824C22.0957 13.1348 22.2461 12.6934 22.2461 12.1582C22.2461 11.623 22.0957 11.1816 21.7949 10.834C21.4941 10.4941 21.1035 10.3242 20.623 10.3242C20.1699 10.3242 19.791 10.4961 19.4863 10.8398C19.1855 11.1875 19.0352 11.6172 19.0352 12.1289ZM26.4707 9.29297V15H25.1523V9.29297H26.4707ZM24.9531 6.91992C24.9531 6.68945 25.0371 6.49023 25.2051 6.32227C25.373 6.1543 25.5742 6.07031 25.8086 6.07031C26.0469 6.07031 26.25 6.1543 26.418 6.32227C26.5859 6.48633 26.6699 6.6875 26.6699 6.92578C26.6699 7.16406 26.5859 7.36719 26.418 7.53516C26.2539 7.70312 26.0527 7.78711 25.8145 7.78711C25.5762 7.78711 25.373 7.70312 25.2051 7.53516C25.0371 7.36719 24.9531 7.16211 24.9531 6.91992ZM28.1406 9.29297H29.4648V9.82031C29.9258 9.36328 30.4453 9.13477 31.0234 9.13477C31.6875 9.13477 32.2051 9.34375 32.5762 9.76172C32.8965 10.1172 33.0566 10.6973 33.0566 11.502V15H31.7324V11.8125C31.7324 11.25 31.6543 10.8613 31.498 10.6465C31.3457 10.4277 31.0684 10.3184 30.666 10.3184C30.2285 10.3184 29.918 10.4629 29.7344 10.752C29.5547 11.0371 29.4648 11.5352 29.4648 12.2461V15H28.1406V9.29297Z" fill="white"/>
</svg>
