<svg width="29" height="31" viewBox="0 0 29 31" fill="none" xmlns="http://www.w3.org/2000/svg">
<path d="M12.7961 21.9583L17.9194 16.417C18.0327 16.2969 18.1226 16.1541 18.1839 15.9967C18.2453 15.8393 18.2769 15.6705 18.2769 15.4999C18.2769 15.3294 18.2453 15.1606 18.1839 15.0032C18.1226 14.8458 18.0327 14.7029 17.9194 14.5829L12.7961 9.10619C12.6838 8.98513 12.5501 8.88903 12.4029 8.82346C12.2556 8.75788 12.0977 8.72412 11.9382 8.72412C11.7787 8.72412 11.6207 8.75788 11.4735 8.82346C11.3262 8.88903 11.1926 8.98513 11.0803 9.10619C10.8552 9.3482 10.7289 9.67558 10.7289 10.0168C10.7289 10.3581 10.8552 10.6854 11.0803 10.9274L15.3578 15.4999L11.0803 20.0724C10.857 20.313 10.7312 20.6378 10.7298 20.9766C10.7289 21.1466 10.7594 21.3151 10.8195 21.4725C10.8797 21.6299 10.9683 21.773 11.0803 21.8937C11.1886 22.0191 11.319 22.1203 11.4641 22.1915C11.6092 22.2626 11.766 22.3024 11.9256 22.3084C12.0851 22.3144 12.2442 22.2866 12.3936 22.2265C12.543 22.1664 12.6798 22.0752 12.7961 21.9583Z" fill="#6E97FF"/>
</svg>
