<svg width="30" height="11" viewBox="0 0 30 11" fill="none" xmlns="http://www.w3.org/2000/svg">
<path d="M6.19922 2.30078L5.0918 2.95703C4.88477 2.59766 4.6875 2.36328 4.5 2.25391C4.30469 2.12891 4.05273 2.06641 3.74414 2.06641C3.36523 2.06641 3.05078 2.17383 2.80078 2.38867C2.55078 2.59961 2.42578 2.86523 2.42578 3.18555C2.42578 3.62695 2.75391 3.98242 3.41016 4.25195L4.3125 4.62109C5.04688 4.91797 5.58398 5.28125 5.92383 5.71094C6.26367 6.13672 6.43359 6.66016 6.43359 7.28125C6.43359 8.11328 6.15625 8.80078 5.60156 9.34375C5.04297 9.89062 4.34961 10.1641 3.52148 10.1641C2.73633 10.1641 2.08789 9.93164 1.57617 9.4668C1.07227 9.00195 0.757812 8.34766 0.632812 7.50391L2.01562 7.19922C2.07812 7.73047 2.1875 8.09766 2.34375 8.30078C2.625 8.69141 3.03516 8.88672 3.57422 8.88672C4 8.88672 4.35352 8.74414 4.63477 8.45898C4.91602 8.17383 5.05664 7.8125 5.05664 7.375C5.05664 7.19922 5.03125 7.03906 4.98047 6.89453C4.93359 6.74609 4.85742 6.61133 4.75195 6.49023C4.65039 6.36523 4.51758 6.25 4.35352 6.14453C4.18945 6.03516 3.99414 5.93164 3.76758 5.83398L2.89453 5.4707C1.65625 4.94727 1.03711 4.18164 1.03711 3.17383C1.03711 2.49414 1.29688 1.92578 1.81641 1.46875C2.33594 1.00781 2.98242 0.777344 3.75586 0.777344C4.79883 0.777344 5.61328 1.28516 6.19922 2.30078ZM7.82812 0.103516H9.14648V4.76758C9.61523 4.3457 10.1328 4.13477 10.6992 4.13477C11.3438 4.13477 11.8594 4.34375 12.2461 4.76172C12.5742 5.125 12.7383 5.70508 12.7383 6.50195V10H11.4199V6.625C11.4199 6.16797 11.3379 5.83789 11.1738 5.63477C11.0137 5.42773 10.7539 5.32422 10.3945 5.32422C9.93359 5.32422 9.60938 5.4668 9.42188 5.75195C9.23828 6.04102 9.14648 6.53711 9.14648 7.24023V10H7.82812V0.103516ZM14.1445 7.10547C14.1445 6.28125 14.4395 5.58008 15.0293 5.00195C15.6191 4.42383 16.3379 4.13477 17.1855 4.13477C18.0371 4.13477 18.7598 4.42578 19.3535 5.00781C19.9395 5.58984 20.2324 6.30469 20.2324 7.15234C20.2324 8.00781 19.9375 8.72461 19.3477 9.30273C18.7539 9.87695 18.0254 10.1641 17.1621 10.1641C16.3066 10.1641 15.5898 9.87109 15.0117 9.28516C14.4336 8.70703 14.1445 7.98047 14.1445 7.10547ZM15.4922 7.12891C15.4922 7.69922 15.6445 8.15039 15.9492 8.48242C16.2617 8.81836 16.6738 8.98633 17.1855 8.98633C17.7012 8.98633 18.1133 8.82031 18.4219 8.48828C18.7305 8.15625 18.8848 7.71289 18.8848 7.1582C18.8848 6.60352 18.7305 6.16016 18.4219 5.82812C18.1094 5.49219 17.6973 5.32422 17.1855 5.32422C16.6816 5.32422 16.2734 5.49219 15.9609 5.82812C15.6484 6.16406 15.4922 6.59766 15.4922 7.12891ZM22.1133 4.29297L23.6074 7.55078L25.2188 3.77148L26.8418 7.55078L28.3184 4.29297H29.7949L26.8066 10.4277L25.2188 6.75391L23.6133 10.4277L20.6309 4.29297H22.1133Z" fill="#C4C4C4"/>
</svg>
