<svg width="48" height="22" viewBox="0 0 48 22" fill="none" xmlns="http://www.w3.org/2000/svg">
<rect y="21.8369" width="21.8367" height="47.0329" rx="5.40217" transform="rotate(-90 0 21.8369)" fill="#2D2D2D"/>
<path d="M3.86413 6.95312L6.2196 13L8.68054 6.51367L11.036 13L13.538 6.95312H15.0204L10.9774 16.5742L8.65124 10.1641L6.22546 16.5801L2.38171 6.95312H3.86413ZM15.8934 6.10352H17.2118V10.7676C17.6805 10.3457 18.1981 10.1348 18.7645 10.1348C19.4091 10.1348 19.9247 10.3438 20.3114 10.7617C20.6395 11.125 20.8036 11.7051 20.8036 12.502V16H19.4852V12.625C19.4852 12.168 19.4032 11.8379 19.2391 11.6348C19.079 11.4277 18.8192 11.3242 18.4598 11.3242C17.9989 11.3242 17.6747 11.4668 17.4872 11.752C17.3036 12.041 17.2118 12.5371 17.2118 13.2402V16H15.8934V6.10352ZM23.7977 10.293V16H22.4794V10.293H23.7977ZM22.2801 7.91992C22.2801 7.68945 22.3641 7.49023 22.5321 7.32227C22.7001 7.1543 22.9012 7.07031 23.1356 7.07031C23.3739 7.07031 23.577 7.1543 23.745 7.32227C23.913 7.48633 23.9969 7.6875 23.9969 7.92578C23.9969 8.16406 23.913 8.36719 23.745 8.53516C23.5809 8.70312 23.3798 8.78711 23.1415 8.78711C22.9032 8.78711 22.7001 8.70312 22.5321 8.53516C22.3641 8.36719 22.2801 8.16211 22.2801 7.91992ZM26.827 11.5234V16H25.5087V11.5234H24.9462V10.293H25.5087V8.20117H26.827V10.293H27.8524V11.5234H26.827ZM34.0516 13.457H29.9618C29.9969 13.9258 30.1493 14.2988 30.4188 14.5762C30.6884 14.8496 31.0341 14.9863 31.4559 14.9863C31.7841 14.9863 32.0555 14.9082 32.2704 14.752C32.4813 14.5957 32.7216 14.3066 32.9911 13.8848L34.1044 14.5059C33.9325 14.7988 33.7509 15.0508 33.5594 15.2617C33.368 15.4688 33.163 15.6406 32.9442 15.7773C32.7255 15.9102 32.4891 16.0078 32.2352 16.0703C31.9813 16.1328 31.7059 16.1641 31.4091 16.1641C30.5575 16.1641 29.8739 15.8906 29.3583 15.3438C28.8426 14.793 28.5848 14.0625 28.5848 13.1523C28.5848 12.25 28.8348 11.5195 29.3348 10.9609C29.8387 10.4102 30.5067 10.1348 31.3387 10.1348C32.1786 10.1348 32.8426 10.4023 33.3309 10.9375C33.8153 11.4688 34.0575 12.2051 34.0575 13.1465L34.0516 13.457ZM32.6981 12.3789C32.5145 11.6758 32.0712 11.3242 31.368 11.3242C31.2079 11.3242 31.0575 11.3496 30.9169 11.4004C30.7762 11.4473 30.6473 11.5176 30.5301 11.6113C30.4169 11.7012 30.3192 11.8105 30.2372 11.9395C30.1551 12.0684 30.0926 12.2148 30.0497 12.3789H32.6981Z" fill="white"/>
<path d="M36.3747 11.1774L39.0559 13.6507C39.114 13.7054 39.1832 13.7488 39.2593 13.7784C39.3355 13.808 39.4172 13.8232 39.4997 13.8232C39.5822 13.8232 39.6639 13.808 39.7401 13.7784C39.8162 13.7488 39.8853 13.7054 39.9434 13.6507L42.5934 11.1774C42.652 11.1231 42.6985 11.0586 42.7303 10.9875C42.762 10.9164 42.7783 10.8402 42.7783 10.7632C42.7783 10.6862 42.762 10.6099 42.7303 10.5389C42.6985 10.4678 42.652 10.4033 42.5934 10.349C42.4763 10.2404 42.3179 10.1794 42.1528 10.1794C41.9877 10.1794 41.8293 10.2404 41.7122 10.349L39.4997 12.414L37.2872 10.349C37.1708 10.2413 37.0137 10.1805 36.8497 10.1799C36.7674 10.1794 36.6859 10.1941 36.6098 10.2232C36.5336 10.2522 36.4643 10.295 36.4059 10.349C36.3453 10.4013 36.2963 10.4643 36.2619 10.5343C36.2274 10.6044 36.2082 10.6801 36.2053 10.7571C36.2024 10.8341 36.2159 10.9109 36.2449 10.9831C36.274 11.0552 36.3181 11.1212 36.3747 11.1774Z" fill="#6E97FF"/>
</svg>
